<svg xmlns="http://www.w3.org/2000/svg" viewBox="0 0 960 560"><title>Citizens Bank Mortgage</title> <path fill="#fff" d="M239.7 345.9c-31.4 0-41.5-20.8-41.5-43.2 0-28.5 14.9-48.3 44.8-48.3 6.4 0 13.1.8 19 2.4l-1.9 15.7c-5.9-1.8-12-2.7-18.1-2.7-16.8 0-25 12.6-25 29.9 0 19.5 8.2 30.4 26.1 30.4 5.4 0 12.8-1.6 17.4-3.7l1.9 15.4c-6.2 2.5-14.2 4.1-22.7 4.1m37.9-67.3h17v65.9h-17v-65.9zm8.5-5.4c-5.6 0-10.1-4.5-10.1-9.9s4.5-9.8 10.1-9.8 10.2 4.3 10.2 9.8c0 5.4-4.6 9.9-10.2 9.9M337 346c-14.6 0-19-5.3-19-20.6v-33.5h-11.4v-13.1H318v-20.3l17-4.5v24.8h16v13.1h-16v29c0 8.5 1.9 10.9 7.8 10.9 2.7 0 5.8-.3 8.2-1.1v13.6a59.6 59.6 0 01-14 1.7m29.6-67.4h17v65.9h-17v-65.9zm8.5-5.4c-5.6 0-10.1-4.5-10.1-9.9s4.5-9.8 10.1-9.8 10.2 4.3 10.2 9.8c0 5.4-4.6 9.9-10.2 9.9m23.7 71.4v-12l26.6-39.1c-2.6.2-7.7.3-14.1.3h-11.7v-15.2h46.3v12l-26.1 38.6c2.7-.2 10.1-.2 15-.2h11.5v15.5m41.2-54.8c-7 0-12 5.1-12.8 13.1H499c.2-8.1-4.3-13.1-11.5-13.1m27.7 24.6h-41c-.2 12.3 5.9 18.2 18.2 18.2 6.6 0 13.6-1.4 19.2-4.2l1.6 13.1c-7 2.7-15.4 4.3-23.7 4.3-21 0-32.7-10.6-32.7-33.8 0-20.2 11.2-35.1 30.9-35.1 19.2 0 27.7 13.1 27.7 29.5.4 2.6.2 5.3-.2 8m55.2 30.3v-42.3c0-6.9-1.9-11-8.2-11-8.6 0-15.4 9.8-15.4 21.4v31.9h-17v-65.9h16c0 3-.3 8.2-1 11.7l.2.2c4-7.8 11.7-13.3 22.4-13.3 14.9 0 19.7 9.6 19.7 21.1v46.4m30 1.2c-4.8 0-9.6-.5-13.8-1.1l.3-13.9c4.2 1.1 9.1 1.9 14.2 1.9 6.6 0 10.7-2.7 10.7-7 0-11.7-26.7-5.1-26.7-27.5 0-11.5 9.4-21.1 28-21.1 3.8 0 8.2.5 12.2 1.1l-.5 13.4a45 45 0 00-12.2-1.8c-6.6 0-9.8 2.7-9.8 6.7 0 10.7 27.1 5.9 27.1 27.4 0 13.1-11.4 21.9-29.5 21.9m90.6-40.9c-1.3 0-5.8 0-7.5.2v25.1c2.1.3 5.4.5 9.4.5 11.4 0 17-5.3 17-13.4 0-8.8-7.5-12.4-18.9-12.4m2.6-36.7c-3.5 0-7 .2-10.1.3v23.4c2.1.2 4.3.2 7 .2 11.8 0 17.9-4.8 17.9-12.8.1-6.6-3.9-11.1-14.8-11.1m-1.3 76.5c-5.4 0-14.9-.3-26.1-.3v-89.5c7.5-.5 19.2-.6 30.3-.6 19.4 0 30.1 7.8 30.1 22.2 0 9-5.8 16.8-14.2 20v.3c10.6 2.2 16 11 16 20-.1 13-8.9 27.9-36.1 27.9m83.4-29.4c-17.9 0-21.9 5.1-21.9 10.6 0 4.3 2.9 7 7.8 7 8.3 0 14.1-8 14.1-16m1.4 27.5c0-3.8.2-7.7.6-11.2l-.2-.2c-3.2 7.4-11.4 12.6-21.1 12.6-12 0-18.9-6.7-18.9-17.4 0-15.8 15.7-24.2 38.1-24.2v-3.5c0-6.9-3.4-10.6-13-10.6-5.9 0-13.9 1.9-19.5 5.1l-1.4-14.2c6.6-2.4 15.2-4.2 23.7-4.2 21.3 0 27.2 8.6 27.2 23.1v27.5c0 5.3.2 11.5.5 17h-16v.2zm73.4 0v-42.3c0-6.9-1.9-11-8.2-11-8.6 0-15.4 9.8-15.4 21.4v31.9h-17v-65.9h16c0 3-.3 8.2-1 11.7l.2.2c4-7.8 11.7-13.3 22.4-13.3 14.9 0 19.7 9.6 19.7 21.1v46.4m54.8-.2l-20.5-32.7v32.7h-17v-96.8h17v58.4l19.2-27.5h20.8l-23.2 30 25 35.9m-817.2 25.1c-4.5 4.5-12 4.6-16.6 0L99 342.5l.2 18.9c.2 7.4-5 11.7-11.5 11.7-6.7 0-11.8-5.3-11.8-11.7v-23.5c0-5.1 3.2-9.3 7.4-11a29 29 0 0016.8-16.8c1.6-4.2 5.8-7.4 11-7.4h23.5c6.4 0 11.7 5.1 11.7 11.8 0 6.6-4.3 11.7-11.7 11.5l-19-.2 27.2 27.2c4.7 4.7 4.5 12.2 0 16.7m0-139.2c4.5 4.5 4.6 12 0 16.6l-27.2 27.2 18.9-.2c7.4-.2 11.7 5 11.7 11.5 0 6.7-5.3 11.8-11.7 11.8h-23.7c-5.1 0-9.3-3.2-11-7.4A29 29 0 0083 273.2c-4.2-1.6-7.4-5.8-7.4-11v-23.5c0-6.4 5.1-11.7 11.8-11.7 6.6 0 11.7 4.3 11.5 11.7l-.2 18.9 27.2-27.2c4.8-4.6 12.3-4.6 16.9.1m-139.4 0c4.5-4.5 12-4.6 16.6 0l27.2 27.2-.2-18.9c-.2-7.4 5-11.7 11.5-11.7 6.7 0 11.8 5.3 11.8 11.7v23.5c0 5.1-3.2 9.3-7.4 11a29 29 0 00-16.8 16.8c-1.6 4.2-5.8 7.4-11 7.4H11.9c-6.4 0-11.7-5.1-11.7-11.8 0-6.6 4.3-11.7 11.7-11.5l18.9.2-27.2-27.3c-4.8-4.6-4.7-12.2-.2-16.6m0 139.2c-4.5-4.5-4.6-12 0-16.6l27.2-27.2-18.9.1c-7.4.2-11.7-5-11.7-11.5 0-6.7 5.3-11.8 11.7-11.8h23.5c5.1 0 9.3 3.2 11 7.4A29 29 0 0063 326.9c4.2 1.6 7.4 5.8 7.4 11v23.5c0 6.4-5.1 11.7-11.8 11.7-6.6 0-11.7-4.3-11.5-11.7l.2-18.9-27.2 27.2c-4.5 4.7-12 4.5-16.7 0"></path> </svg>