<svg xmlns="http://www.w3.org/2000/svg" viewBox="0 0 960 560"><title>Quore</title> <path fill="#fff" d="M677 451l-.633.73c58.1-72.4 78.7-172 45.8-266-51-145-210-221-354-170-144 50.8-220 209-170 354 50.7 144 209 220 354 170l-.285.08h.31c58.8-20.7 121-11 170 20.7l55.6-64.2c-31-23-65-38-101-46zm-153 9c-100 35.3-211-17.7-246-118-35.3-100 17.7-211 118-246 100-35.3 211 17.7 246 118s-18 210-118 246z"></path> <linearGradient id="a" x1="-121" x2="-106" y1="436" y2="557" gradientTransform="matrix(1 0 0 -1 740 913)" gradientUnits="userSpaceOnUse"> <stop offset="0" stop-color="#454545"></stop> <stop offset=".003" stop-color="#454545" stop-opacity=".997"></stop> <stop offset=".216" stop-color="#353535" stop-opacity=".784"></stop> <stop offset=".443" stop-color="#292929" stop-opacity=".557"></stop> <stop offset=".691" stop-color="#222" stop-opacity=".309"></stop> <stop offset="1" stop-color="#202020" stop-opacity="0"></stop> </linearGradient> <path fill="url(#a)" d="M707 460c-10-3.5-20.2-6.5-30.6-8.85l-.633.732c24.6-30.7 42.4-66.3 52.3-104l-94 14c-20.9 42.7-57.6 77.7-105 95.7l-.055 1.31c59.9-20.2 122-18.7 178 .365l1 1z"></path> </svg>