<svg xmlns="http://www.w3.org/2000/svg" viewBox="0 0 960 560"><title>Red Diamond</title> <path fill="#E51837" d="M489 .002c.615.473 1.18 1.03 1.85 1.41l226 130c75.3 43.3 151 86.7 226 130 .825.48 1.68.915 2.52 1.37v.443c-4.42 2.78-8.86 5.51-13.2 8.35-82 54-162 106-242 158-65.4 42.5-131 85.1-196 128-1.96 1.28-3.86 2.66-5.78 3.99h-1.33c-.53-.463-1.02-1-1.6-1.38-93.4-58.6-187-117-280-176-63-40-126-79-189-119-.72-.452-1.55-.728-2.33-1.09v-.443c6.9-3.78 13.8-7.52 20.7-11.3 70.9-39.4 142-78.8 213-118 79.2-44 158-88.1 238-132 .63-.35 1.2-.816 1.79-1.23l1-.768zm-453 264c.893.612 1.53 1.08 2.19 1.5 52.8 33.1 106 66.3 158 99.4 96.1 60.3 192 121 288 181 2.11 1.33 3.5 1.37 5.63-.012 44-28.6 88-57.2 132-85.7 97.6-63.3 195-127 293-190 3.07-1.99 6.14-4 9.41-6.13-1.04-.622-1.78-1.09-2.54-1.53-64.8-37.3-130-74.5-194-112-79.3-45.6-159-91.2-238-137-1.51-.872-2.62-.95-4.18-.076-25.9 14.5-51.9 28.9-77.8 43.3-121 68.8-243 136-365 204-1.6 1-3.7 2-6 4z"></path> <path fill="#fff" d="M36 264l6.45-3.58 366-203c26-14.4 51.9-28.8 77.8-43.3 1.57-.876 2.67-.8 4.18.076 79.2 45.6 159 91.2 238 137 64.8 37.3 130 74.5 194 112 .76.435 1.5.908 2.53 1.53-3.27 2.13-6.34 4.14-9.41 6.13-97.6 63.3-195 127-293 190-44 28.6-88.1 57.1-132 85.7-2.12 1.38-3.51 1.34-5.63.017-96-62-192-122-288-183-52.8-33.1-106-66.3-158-99.4-1.5 0-2.1-1-3-1zm869 1c-.846-.52-1.45-.91-2.07-1.27-75.5-43.4-151-86.7-226-130-63-36.5-125-72.3-187-108-1.6-.923-2.76-.984-4.39-.076-46.5 25.9-93 51.7-139 77.5-89.8 49.9-180 99.7-269 150-6.88 3.82-13.8 7.66-21 11.7 144 90.3 288 180 432 271 138-91 277-181 416-271z"></path> <path fill="#E51837" d="M905 265c-139 90.2-278 180-418 271-143-91-287-181-432-271 7.19-4 14.1-7.84 21-11.7 89.8-49.9 180-99.7 269-150 46.5-25.8 93-51.6 139-77.5 1.63-.908 2.78-.847 4.39.077 62.3 35.8 125 71.6 187 107l226 130c3 1 3 1 4 2zm-744-39c-.654 3.21-.614 3.27 2.19 3.6 4.83.57 7.56 3.02 8.57 7.84.252 1.22.333 2.48.333 3.73.018 20.9.015 41.7.013 62.6 0 7.57-2.45 10.4-9.96 11.7-.55.095-1.26.873-1.4 1.45-.42 1.8.252 2.56 2.31 2.55 18.1-.08 36.3.046 54.4-.11 5.28-.042 10.6-.48 15.8-1.32 13.2-2.15 23.6-8.82 30.4-20.6 7.11-12.4 8.49-25.7 5.19-39.5-3-12.6-10.7-21.2-22.5-26.3-8.86-3.81-18.2-5.5-27.8-5.63-18.7-.24-37.3-.096-56-.104 0-2-1-2-1-2zm258-53c2.92-1.55 6.54-2.96 9.56-5.18 7.78-5.72 10.7-13.6 9.18-23.1-1.4-8.68-6.65-14.2-14.8-17.2-5.68-2.08-11.6-2.78-17.6-2.8-15.1-.072-30.2-.027-45.4-.025-3.1 0-3.33.332-2.49 3.55.854.122 1.73.24 2.6.385 5.24.874 8.04 3.92 8.44 9.22.092 1.25.112 2.5.114 3.75.01 19.9.01 39.8 0 59.8 0 1.18-.025 2.36-.105 3.54-.368 5.48-3.32 8.59-8.8 9.31-.796.104-1.58.257-2.4.395v3.51h44.8v-3.54c-1.03-.154-1.9-.306-2.77-.42-4.54-.572-7.4-3.23-8.14-7.71a30.328 30.328 0 01-.42-4.83c-.04-7.6-.02-15.2-.015-22.8 0-.71.066-1.41.105-2.25 3.74.663 6.06 2.83 7.74 5.87 3.75 6.77 7.3 13.6 11.3 20.3 4.59 7.58 10.4 13.9 19.2 16.8 7.83 2.58 15.7 1.71 23.6.137.534-.107 1.24-1.2 1.2-1.79-.04-.557-.94-1.47-1.5-1.5-6.88-.346-11.6-3.71-14.5-9.88-.37-.802-.86-1.55-1.3-2.31-8-10-14-21-20-31zm106 147c.555-3.15.555-3.15-2.38-3.53-4.04-.528-6.11-2.44-6.7-6.43-.28-1.89-.383-3.81-.422-5.73-.2-10.7-.355-21.4-.53-32.1-.112-7.3-.313-14.6-.335-21.9-.016-4.65 2.78-8.23 6.74-8.46 2.59-.155 2.39-1.45 2.01-3.32-.77-.042-1.49-.115-2.2-.115-7.97-.007-15.9.042-23.9-.038-1.64-.02-2.47.48-3.16 2-6.73 14.8-13.6 29.6-20.4 44.4-1.79 3.9-3.6 7.79-5.56 12-.478-.962-.776-1.54-1.05-2.12-8.31-18.1-16.6-36.1-24.9-54.2-.665-1.46-1.41-2.1-3.1-2.07-7.97.096-15.9.038-23.9.045-.706 0-1.42.073-2.04.108-.568 2.17-.23 3.15 2.14 3.37 4.96.478 6.79 2.58 6.69 7.54-.197 10.2-.552 20.3-.872 30.5-.292 9.35-.57 18.7-.97 28.1-.212 4.87-3.01 7.94-7.42 8.49-2.72.35-2.82.5-2.1 3.45h30.4c.453-3.21.453-3.21-2.56-3.5-6.69-.655-9.3-3.22-9.29-9.88.02-13.1.284-26.2.435-39.4.03-2.73.004-5.46.004-8.2.776.482 1.02 1 1.25 1.53 8.44 18.7 16.9 37.4 25.2 56.2 1.28 2.9 2.7 4.17 5.98 3.91 2.16-.166 3.19-.787 4.07-2.73 7.98-17.6 16.1-35.1 24.1-52.6 1.43-3.1 2.87-6.2 4.3-9.3.382.52.378.938.384 1.35.142 7.67.293 15.3.426 23 .16 9.29.35 18.6.438 27.9.045 5.13-2.4 7.73-7.48 8.31-.71.08-1.4.25-2.09.376v3.03c14 1 27 1 40 1zm6-102h2.88c15.3 0 30.5.067 45.8-.044 4.55-.032 9.15-.267 13.6-.932 13-1.93 22.9-8.6 28.8-20.5 4.49-9.07 5.62-18.7 3.97-28.6-2.1-12.7-8.91-21.7-20.9-26.7-7.73-3.21-15.9-4.62-24.1-4.72-16.1-.21-32.1-.087-48.2-.097-.566 0-1.14.097-1.86.162.113 1.35-.96 2.88 1.52 3.15 5.56.586 8.36 3.53 8.39 9.17.088 18.9.08 37.8.004 56.6-.026 5.44-2.62 8.16-8.03 9.04-.574.094-1.15.206-1.85.335-1 3-1 4-1 5zm198 102h2.72c14.9 0 29.8.07 44.7-.038 4.7-.037 9.44-.266 14.1-.884 13.3-1.76 23.5-8.41 29.5-20.6 5.13-10.3 5.92-21.2 3.24-32.3-2.55-10.6-8.94-18.1-18.9-22.5-7.92-3.57-16.3-5.13-24.9-5.23-16.1-.196-32.3-.114-48.4-.143-.705 0-1.41.09-2.07.138-.38 2.97-.38 2.97 2.17 3.22 4 .39 6.62 2.77 7.34 6.76.23 1.3.39 2.63.393 3.95.025 17.8.025 35.5 0 53.3-.006 1.39-.158 2.8-.408 4.17-.68 3.76-3.26 6.07-7.08 6.49-2 0-2 0-2 4zm-150 2c9.44.207 18.2-2.28 26.6-6.49 8.93-4.51 15.4-11.3 18.4-21 6.34-20.8-1.24-40.7-19.6-50.8-10.3-5.66-21.4-7.8-33.1-6.57-13.6 1.43-25.1 6.88-34.3 17.2-16.6 18.8-10.1 46.1 7.52 57.8 10 7 21 9 34 10zm77-2c.602-3.14.602-3.14-2.31-3.57-5.05-.738-7.53-3.07-8-7.66-.2-2.04-.343-4.11-.347-6.18-.033-14.3-.016-28.6-.01-42.9 0-.625.08-1.25.17-2.54.73.902 1.07 1.38 1.47 1.8l56.9 60.4c.492.517 1.12 1.23 1.72 1.26 2.69.136 5.4.06 8.25.06v-2.91c0-21.2-.006-42.4.01-63.5 0-1.33.072-2.66.26-3.97.798-5.57 2.73-7.47 8.32-8.32 2.83-.435 2.87-.498 2.13-3.26h-28.8c-.696 2.26-.08 3.08 2.27 3.34 5.14.558 7.53 2.86 8.11 7.25.21 1.6.34 3.23.343 4.85.03 12.4.017 24.8.017 37.2v2.59c-.818-.768-1.31-1.18-1.73-1.62l-48.8-51.9c-1.26-1.34-2.52-1.92-4.39-1.9-7.67.106-15.3.04-23 .04h-2.35v3.15c.887.09 1.61.157 2.34.237 5.12.574 8.14 3.31 9.13 8.42.262 1.36.334 2.78.338 4.17.024 13.1.02 26.3.015 39.4-.002 4.35.07 8.71-.067 13.1-.19 6.14-2.7 8.89-8.49 9.59-2.79.345-3 .69-2.08 3.54 11 3 21 3 30 3zM487 180c2.34 0 4.47-.067 6.58.012 6.8.25 11.6 3.09 13 10.2.088.41.742.967 1.17 1 1.43.126 2.88.05 4.36.05v-28.2c-.865-.047-1.6-.023-2.31-.14-2.2-.36-3.21.44-3.73 2.75-.752 3.36-2.8 6-6.12 7.36-4.15 1.7-8.46 1.4-12.8 1.22v-32.4c5.07.224 10 .225 14.9.706 6.69.66 11.8 3.9 14.7 10.2 1.82 3.89 1.92 3.85 6.19 3.03.13-.025.236-.154.447-.296 0-.373.033-.807-.008-1.23-.462-4.91-1.01-9.82-1.36-14.7-.134-1.86-.714-2.46-2.65-2.45-19.8.078-39.7.042-59.5.05-.777 0-1.56.076-2.24.114-.698 2.27-.144 3.15 2.14 3.28 3.14.184 5.72 1.7 6.76 4.84.583 1.78.88 3.73.887 5.62.07 14.2.04 28.5.04 42.7 0 4.2.06 8.41-.038 12.6-.122 5.38-2.57 8.11-7.85 8.95-.648.104-1.29.224-2.01.35v3.02h69.8c.505-6.86 1.02-13.6 1.48-20.4.03-.404-.25-1.04-.575-1.22-2.62-1.44-4.43-.66-5.32 2.19-.242.77-.49 1.54-.766 2.3-2.25 6.17-6.67 9.88-13.1 10.8-4.64.664-9.36.962-14.1.973-5.37.014-7.11-1.51-7.47-6.88-.452-6.68-.374-13.4-.5-20.1-1-4-1-6-1-8zm-80 140c.687-2.46.285-3.72-2.35-4.26-1.81-.376-3.68-1.62-4.99-3-1.59-1.67-2.87-3.76-3.85-5.87-10.3-22-20.5-44.1-30.6-66.2-1.27-2.8-3.18-2.08-5.18-2.32-1.98-.242-2.45 1.01-3.07 2.42-9.41 21.4-18.8 42.9-28.3 64.3-2.69 6.1-5.75 11.8-13.6 12.2v2.63h30.9c.586-2.06.125-2.78-2.04-3.14-6.56-1.1-7.23-3.55-5.93-8.61 1.16-4.55 2.92-8.95 4.31-13.4.407-1.32 1.1-1.65 2.39-1.65 5.53.062 11.1.426 16.6-.094 4.89-.463 7.55 1.04 8.91 5.81 1.2 4.22 3.23 8.2 4.56 12.4.792 2.52-.316 4.06-2.88 4.8-1.46.423-3 .562-4.46.815v3.18h39zm-133 0h38.8c.602-3.14.602-3.14-2.42-3.5-3.49-.426-5.9-2.39-6.73-5.79-.394-1.62-.506-3.35-.51-5.03-.04-16.6-.03-33.2-.02-49.8 0-2.07-.038-4.14.12-6.19.343-4.53 3.18-7.45 7.5-7.88 2.58-.255 2.72-.478 1.97-3.18h-38.8c-.57 2.12-.218 3.19 2.17 3.25 2.64.067 5.01 1.27 6.06 3.78.828 1.98 1.36 4.23 1.38 6.38.12 13.2.062 26.4.06 39.6 0 5.38.073 10.8-.042 16.2-.108 5.06-2.84 8.17-7.37 8.69-2 0-2 0-1 4zm262 38c-1.19.792-2.42 1.56-3.6 2.42-2.14 1.56-4.4 3-6.35 4.77-5.03 4.55-4.14 11.3 1.88 14.4 5.3 2.78 10.9 3.18 16.5 1.1 3.13-1.16 6.06-2.88 8.54-4.09 3.55 1.73 6.69 3.74 10.1 4.8 4.03 1.25 8.25.802 11.9-1.59 3.72-2.44 4.23-6.7 1.22-9.31-.924.585-1.88 1.19-2.89 1.84l1.02 1.52c1.77 2.71.45 5.65-2.78 5.92-1.19.1-2.66-.05-3.6-.687-3.27-2.23-6.4-4.67-9.49-7.15-.48-.385-.854-1.58-.61-2.08 1.88-3.91 2.88-7.97 2.32-11.8 4.6-1.27 8.98-2.21 13.2-3.71 2.83-1.02 4.9-3.27 5.8-6.3.916-3.06-.574-6.01-3.65-7.4-2.76-1.25-4.06-.867-5.9 1.83 1.27.42 2.55.74 3.74 1.26 2.03.877 4.54 1.73 4.27 4.41-.252 2.56-2.81 3.16-4.9 3.34-5.64.464-11.3.702-16.9.862-3.5.102-3.58.02-4.57 3.51 6.22 2.9 7.8 7.19 4.64 13.6-4.19-4.75-8.25-9.36-12.5-14.2 1.03-.646 1.73-1.02 2.37-1.49 1.84-1.34 3.84-2.53 5.43-4.14 3.22-3.25 2.51-7.23-1.63-9.18-5.03-2.36-9.95-1.68-14.5 1.37-3.6 2.44-4.56 6.47-2.57 10.3 4 1 5 3 7 5zm-211 21c2.92.09 8.04-1.15 12.8-3.74 8.86-4.85 10.4-16.2 3.38-23.5-8.78-8.97-27.6-9.51-37.7-1.07-8.42 6.99-7.64 18.1 1.73 23.8 5 3 11 4 20 4zm178-26c-.19-1.8-.416-3.62-.566-5.44-.104-1.26-.645-1.74-1.97-1.73-9.29.052-18.6.025-27.9.044-.547 0-1.1.2-1.78.335.282.494.327.68.428.723.337.136.692.23 1.05.32 2.8.717 3.5 1.57 3.51 4.46.02 7.01.022 14 0 21-.007 2.77-.83 3.74-3.39 4.32-.545.118-1.02.52-1.88.977.73.322.93.48 1.12.48 10.6.026 21.2.054 31.9-.01.52-.005 1.4-.828 1.48-1.36.35-2.32.455-4.67.646-6.93-1.73-1.14-2.62-.62-3.2 1.1-.733 2.17-2.33 3.8-4.52 4.16-3.16.538-6.41.65-9.63.787-1.65.072-2.64-.975-2.67-2.61-.074-3.5-.02-7.01-.02-10.6 1.22 0 2.46-.095 3.69.02 2.11.2 4.19.733 5.06 2.95.684 1.73 1.77 1.57 3.14 1.19v-11.3c-1.09.35-2.23.356-2.66.912-2.83 3.72-4.88 4.55-9.41 3.48v-12.3c2.68 0 5.25-.182 7.79.046 2.92.262 5.35 1.6 6.73 4.37 2 4 3 3 4 3zm-59-6c3.07.195 5.84.257 8.59.562 2.64.296 4.73 1.65 5.96 4.05.773 1.51 1.74 1.55 3.18.636-.2-1.78-.498-3.59-.578-5.41-.065-1.37-.683-1.72-1.94-1.72-9.29.033-18.6.012-27.9.033-.53.004-1.06.232-1.6.358.57.732 1.09.983 1.63 1.08 2.19.377 3.12 1.76 3.12 3.88.008 7.37.01 14.7-.013 22.1-.007 2.16-1.08 3.4-3.26 3.74-.546.084-1.04.526-1.55.81l.194.713h6.55c8.41 0 16.8.035 25.2-.046.71-.01 1.94-.683 2.02-1.2.404-2.37.49-4.8.7-7.34-.884-.187-1.58-.332-2.27-.473l.41.635c-1.77 1.72-3.28 4.29-5.39 4.96-3.25 1.05-6.91.916-10.4 1.02-.73.02-2.06-1.06-2.14-1.73-.417-3.75-.53-7.53-.746-11.3 1.66 0 2.77-.075 3.86.016 2.18.19 4.39.597 5.33 2.88.682 1.65 1.65 1.79 3.06 1.33v-11.4c-1.06.36-2.32.43-2.5.918-1.5 3.94-4.82 3.86-8.1 3.8-.496-.007-1.4-.705-1.41-1.1-1-7-1-10-1-15zm188-1l-.115.617c.438.18.865.472 1.32.528 2.46.304 3.34 1.91 3.46 4.12.062 1.1.027 2.21.027 3.32.002 5.82.024 11.6-.012 17.5-.02 2.75-.53 4.6-3.78 4.93-.396.04-.746.528-1.12.81l.232.452h33.7l.73-8.23c-1.61-.825-2.58-.77-3.15 1.06-.646 2.08-2.11 3.79-4.25 4.13-3.38.548-6.83.755-10.3.806-.747.012-2.13-1.23-2.18-1.95-.227-3.7-.106-7.41-.106-11.1 1.22 0 2.33-.08 3.42.02 2.2.196 4.38.704 5.26 3 .647 1.69 1.65 1.49 2.93 1.22v-11.4c-1.08.407-2.14.47-2.54 1.02-2.71 3.68-4.68 4.5-9.34 3.44 0-3.4-.006-6.84.006-10.3.002-.646.072-1.29.133-2.33 2.97.207 5.82.285 8.64.64 2.46.313 4.44 1.66 5.58 3.9.83 1.63 1.85 1.58 3.28.73l-.895-6.88c-10-1-21-1-31-1zm-344 1c-6.6-1.61-13.2-2.27-20-1.64-4.74.446-9.32 1.46-13.3 4.24-10.3 7.17-9.37 21.1 1.89 26.6 10.5 5.16 21 3.66 31.5-.324.465-.177 1.11-.754 1.11-1.14-.006-1.77-.215-3.55-.328-5-3.36 2.14-6.43 4.68-9.93 6.19-5.62 2.42-11.1 1.49-15.5-3.01-4.74-4.93-6.49-10.9-3.93-17.5 2.24-5.8 6.88-8.39 12.9-8.75 6.25-.37 10.1 2.02 12.9 7.77.312.634 1.49.843 2.62 1.44-1-4-1-6-1-9zm410 30l.217.864c6.03 0 12 .01 18.1-.026.336-.005.66-.4.988-.615-.23-.312-.42-.853-.7-.897-3.1-.54-4.4-2.96-5.74-5.36-4.41-7.91-8.84-15.8-13.2-23.7-.607-1.1-1.06-2.12-2.71-2.12-1.73-.007-2.03 1.2-2.59 2.25-4.21 7.85-8.46 15.7-12.6 23.6-1.53 2.94-3.27 5.44-6.84 5.94-.11.02-.18.343-.335.668h15.1l.074-.562c-.5-.174-.996-.39-1.51-.517-1.41-.345-3.02-.704-2.51-2.61.652-2.44.78-5.24 3.38-6.74.115-.062.29-.018.438-.018 3.1 0 6.19-.045 9.29.04.604.02 1.44.422 1.74.91 1.02 1.7 1.88 3.5 2.74 5.28.814 1.68.27 2.65-1.58 2.98 3 2 3 2 2 2zm-331-17v-12.7c2.34 0 4.49-.153 6.61.037 3.19.282 6.09 1.32 7.69 4.42.803 1.55 1.82 1.41 3.18.576-.29-2.28-.58-4.58-.863-6.78h-31c.22.622.482.854.79.95 3.47 1.08 3.74 1.4 3.75 4.91.015 6.79.015 13.6 0 20.4-.006 3.41-.28 3.71-3.65 4.71-.4.118-.698.575-1.27 1.07 3.77.804 18.1.502 19.7-.55-.912-.268-1.64-.313-2.14-.673-1.02-.712-2.65-1.54-2.72-2.42-.302-3.78-.13-7.59-.13-11.5 1.3 0 2.4-.085 3.48.02 2.18.196 4.38.602 5.3 2.92.672 1.68 1.68 1.72 3.12 1.26v-11.3c-1.07.328-2.42.366-2.62.866-2 5-5 4-9 4zm38-12c2.51 0 4.73-.15 6.92.035 3.2.27 6.05 1.38 7.65 4.48.816 1.58 1.85 1.27 3.12.526-.225-1.82-.552-3.57-.612-5.32-.052-1.49-.71-1.82-2.06-1.81-9.21.04-18.4.02-27.6.037-.575.003-1.15.182-1.73.278l-.043.62c.576.19 1.14.444 1.73.552 1.97.35 2.99 1.52 3 3.49.02 7.59.02 15.2 0 22.8-.004 2-1.1 3.09-3.05 3.44-.59.112-1.14.44-1.71.673l.155.54h18.9l.113-.69c-.614-.19-1.32-.25-1.82-.6-.97-.665-2.55-1.45-2.6-2.27-.28-3.84-.124-7.72-.124-11.7 1.44.08 2.84.082 4.22.253 1.88.23 3.76.74 4.48 2.72.66 1.81 1.74 1.83 3.22 1.36v-11.3c-1.07.325-2.26.308-2.67.86-2.77 3.73-4.76 4.56-9.42 3.53 2-5 2-9 2-13zm192 29l.244.542h18.9l.406-.728c-.346-.123-.676-.262-1.02-.37-4.16-1.35-4.16-1.35-4.16-5.65-.002-6.93-.004-13.9.004-20.8.002-.776.067-1.55.104-2.28 6.26-.692 7.95.288 10.9 5.78.34.623 1.62.73 2.92 1.27-.258-2.97-.61-5.17-.586-7.36.02-1.92-.775-2.28-2.5-2.27-10.5.066-20.9.034-31.4.038-.648.003-1.3.077-2.15.133-.148 1.54-.31 2.98-.422 4.43s-.19 2.9-.285 4.41c1.54.405 2.53.53 3.18-1.3 1.6-4.56 5.65-6.35 10.7-4.86 0 8.34.043 16.7-.04 25.1-.02 1.81-1.18 2.93-3.07 3.21-2 1-3 1-3 1z"></path> <path fill="#fff" d="M161 226c.53-.045 1.1-.138 1.67-.138 18.7.007 37.3-.137 56 .103 9.54.125 18.9 1.82 27.8 5.63 11.8 5.08 19.5 13.8 22.5 26.3 3.29 13.8 1.92 27.1-5.19 39.5-6.74 11.8-17.1 18.4-30.4 20.6-5.21.843-10.5 1.28-15.8 1.32-18.1.16-36.3.03-54.4.11-2.06.01-2.73-.743-2.31-2.55.136-.576.845-1.35 1.4-1.45 7.51-1.29 9.96-4.1 9.96-11.7.003-20.9.005-41.7-.013-62.6 0-1.24-.08-2.51-.333-3.72-1-4.82-3.74-7.27-8.57-7.84-5 1-5 0-4-3zm33 5v2.98c0 22.2-.007 44.4.016 66.6 0 1.84.116 3.68.293 5.51.443 4.53 3.01 7.18 7.52 7.47 3.22.21 6.47.188 9.7.013 16.5-.874 29.1-11.5 32-27.6 2.33-12.6.828-25-4.47-36.7-3.75-8.3-10.2-13.8-18.9-16.4-9-2-18-2-27-2zm225-58c5.81 10.2 11.8 20.7 17.7 31.1.435.77.926 1.51 1.3 2.31 2.88 6.18 7.62 9.54 14.5 9.89.56.027 1.46.946 1.5 1.5.038.585-.668 1.68-1.2 1.79-7.86 1.58-15.7 2.44-23.6-.137-8.77-2.89-14.6-9.24-19.2-16.8-4.01-6.61-7.56-13.5-11.3-20.2-1.68-3.04-4.01-5.2-7.74-5.87-.043.84-.11 1.54-.11 2.25-.007 7.6-.026 15.2.015 22.8.012 1.61.156 3.24.418 4.83.732 4.47 3.6 7.14 8.14 7.71.872.113 1.74.265 2.77.42v3.54h-44.8v-3.51c.824-.138 1.61-.29 2.4-.396 5.48-.726 8.43-3.84 8.8-9.31.077-1.18.108-2.36.108-3.54.006-19.9.006-39.8 0-59.8 0-1.25-.022-2.5-.114-3.75-.395-5.3-3.19-8.35-8.44-9.22-.868-.146-1.74-.263-2.59-.386-.847-3.22-.617-3.55 2.48-3.55 15.1 0 30.2-.044 45.4.026 5.98.027 11.9.72 17.6 2.8 8.11 2.98 13.4 8.5 14.8 17.2 1.53 9.48-1.4 17.4-9.17 23.1-2 2-6 4-9 5zm-28-3c2.25 0 4.23.116 6.2-.018 9.56-.65 15.8-6.22 16.9-15.6.35-3.06-.037-6.37-.794-9.39-2.66-10.7-9.95-16.2-20-15.7-1.87.095-2.34.76-2.3 2.52.103 5.38.036 10.8.036 16.2v22zm134 150h-38.7v-3.04c.685-.127 1.38-.293 2.09-.375 5.09-.576 7.53-3.18 7.48-8.31-.086-9.29-.276-18.6-.438-27.9-.134-7.67-.285-15.3-.427-23-.008-.414-.002-.83-.385-1.35-1.43 3.1-2.88 6.2-4.3 9.3-8.06 17.5-16.2 35-24.1 52.6-.884 1.94-1.9 2.56-4.07 2.73-3.28.257-4.7-1.01-5.98-3.92-8.28-18.8-16.8-37.5-25.2-56.2-.232-.524-.47-1.04-1.25-1.53 0 2.73.027 5.46-.003 8.2-.15 13.1-.417 26.2-.434 39.4-.013 6.66 2.6 9.22 9.29 9.88 3.01.297 3.01.297 2.56 3.5h-30.4c-.716-2.95-.617-3.1 2.11-3.45 4.4-.557 7.2-3.62 7.42-8.49.4-9.35.678-18.7.972-28.1.316-10.2.67-20.3.87-30.5.1-4.96-1.73-7.06-6.69-7.54-2.37-.23-2.7-1.2-2.14-3.37.62-.037 1.33-.105 2.04-.107 7.97-.007 15.9.05 23.9-.045 1.69-.022 2.44.608 3.1 2.07 8.26 18.1 16.6 36.1 24.9 54.2.272.584.576 1.16 1.05 2.12 1.95-4.22 3.77-8.11 5.56-12l20.4-44.4c.69-1.52 1.52-2.02 3.16-2 7.97.082 15.9.034 23.9.038.72 0 1.44.074 2.21.116.38 1.87.575 3.17-2.01 3.32-3.97.237-6.76 3.81-6.74 8.47.022 7.3.218 14.6.335 21.9.176 10.7.332 21.4.53 32.1.038 1.91.142 3.83.423 5.73.586 3.98 2.65 5.9 6.7 6.43 2 0 2 0 1 4zm6-102v-3.15c.7-.127 1.27-.242 1.85-.336 5.42-.876 8.01-3.59 8.03-9.04.075-18.9.084-37.8-.004-56.6-.03-5.64-2.83-8.58-8.39-9.17-2.48-.265-1.41-1.8-1.52-3.15.723-.064 1.29-.162 1.86-.162 16.1.008 32.2-.113 48.2.098 8.28.108 16.4 1.52 24.1 4.72 12 4.97 18.8 14 20.9 26.7 1.65 9.94.52 19.5-3.97 28.6-5.92 11.9-15.8 18.6-28.8 20.5-4.5.665-9.1.9-13.6.932-15.3.11-30.5.045-45.8.045 0-1-1-1-2-1zm30-77v3.67c0 19.2-.002 38.3.006 57.5 0 1.32.037 2.66.105 3.98.25 4.7 2.62 7.29 7.3 7.43 3.67.102 7.4.098 11-.48 11-1.75 19.3-7.32 23.1-18.1 4.7-13.4 3.05-26.6-3.09-39.2-3.5-7.16-9.59-11.8-17.4-13.1-7-2-14-2-21-2zm168 179c-.396-3.33-.396-3.33 2.42-3.64 3.82-.424 6.4-2.73 7.08-6.49.248-1.37.4-2.78.404-4.17.025-17.8.025-35.5 0-53.3-.002-1.32-.158-2.65-.395-3.95-.72-3.99-3.34-6.37-7.34-6.76-2.55-.25-2.55-.25-2.17-3.22.657-.047 1.37-.138 2.07-.138 16.2.024 32.3-.055 48.4.142 8.6.103 17 1.66 24.9 5.23 9.91 4.47 16.3 11.9 18.9 22.5 2.68 11.1 1.89 22-3.24 32.3-6.06 12.2-16.2 18.8-29.5 20.6-4.66.617-9.4.847-14.1.884-14.9.108-29.8.038-44.7.038h-2zm30-78v2.71c0 19.8 0 39.7.008 59.5 0 1.18.013 2.36.152 3.54.43 3.58 2.2 5.81 5.81 6.17 3.7.365 7.49.28 11.2-.058 12.4-1.13 22-8.87 25.2-20.9 3.2-12.1 1.91-24-3.34-35.3-3.64-7.86-9.92-12.8-18.4-14.4-3.95-.775-8.03-.944-12.1-1.2-4-1-6-1-9-1z"></path> <path fill="#fff" d="M579 322c-12.4-.253-24.1-2.96-34.5-9.9-17.7-11.7-24.2-39-7.52-57.8 9.15-10.3 20.7-15.8 34.3-17.2 11.7-1.24 22.8.902 33.1 6.57 18.4 10.1 26 30 19.6 50.8-2.98 9.78-9.43 16.5-18.4 21-8 3-17 6-26 6zm24-38c.047-11.4-2.22-20.6-6.7-28.5-3.27-5.74-7.33-10.7-13.7-13.3-8.85-3.55-23.7-1.69-29.8 13.6-4.73 11.8-4.68 24-1.44 36.2 2.22 8.38 6.51 15.5 13.8 20.4 12 8.23 26.9 4.35 33.3-8.69 4-7 5-14 5-20z"></path> <path fill="#fff" d="M656 320h-28.6c-.916-2.85-.707-3.2 2.08-3.54 5.79-.707 8.29-3.45 8.49-9.6.137-4.35.065-8.7.067-13.1.006-13.1.012-26.3-.014-39.4-.004-1.39-.074-2.81-.338-4.17-.984-5.1-4.01-7.84-9.13-8.42-.728-.08-1.45-.147-2.34-.236v-3.15h2.35c7.67 0 15.3.064 23-.042 1.87-.028 3.12.555 4.39 1.9 16.2 17.3 32.5 34.6 48.8 51.9.424.452.91.862 1.73 1.63v-2.59c0-12.4.017-24.8-.016-37.2a36.836 36.836 0 00-.345-4.85c-.578-4.38-2.97-6.69-8.11-7.25-2.34-.258-2.96-1.08-2.27-3.34h28.8c.73 2.77.695 2.83-2.14 3.26-5.59.854-7.52 2.76-8.31 8.32-.188 1.31-.26 2.64-.26 3.97-.015 21.2-.01 42.3-.01 63.5v2.91c-2.85 0-5.56.077-8.25-.06-.595-.03-1.23-.736-1.72-1.26l-56.9-60.4c-.397-.422-.737-.895-1.47-1.8-.09 1.29-.17 1.92-.17 2.54-.007 14.3-.022 28.6.01 42.9.005 2.06.138 4.13.347 6.18.47 4.6 2.95 6.93 8 7.66 2-2 2-2 1 2zM487 180c0 2.27-.037 4.31.004 6.36.125 6.7.047 13.4.502 20.1.36 5.37 2.1 6.9 7.47 6.88 4.69-.014 9.42-.31 14.1-.975 6.43-.918 10.9-4.63 13.1-10.8.273-.76.523-1.53.766-2.3.888-2.85 2.7-3.63 5.32-2.19.326.183.602.82.576 1.22-.463 6.75-.972 13.5-1.48 20.4h-69.8v-3.02c.727-.127 1.37-.25 2.01-.35 5.27-.848 7.73-3.58 7.85-8.95.096-4.2.034-8.41.034-12.6 0-14.2.032-28.5-.04-42.7-.01-1.88-.305-3.84-.887-5.62-1.04-3.14-3.61-4.66-6.76-4.84-2.28-.134-2.84-1.02-2.14-3.28.683-.04 1.46-.115 2.24-.115 19.8-.005 39.7.03 59.5-.05 1.94-.006 2.52.59 2.65 2.45.353 4.92.902 9.83 1.36 14.7.04.428.008.865.008 1.23-.21.144-.318.274-.447.3-4.26.82-4.36.864-6.19-3.03-2.95-6.28-8.01-9.52-14.7-10.2-4.88-.482-9.81-.483-14.9-.707v32.4c4.34.177 8.66.48 12.8-1.23 3.33-1.36 5.37-3.99 6.12-7.36.518-2.31 1.52-3.11 3.73-2.74.716.112 1.44.09 2.32.138v28.2c-1.48 0-2.94.077-4.36-.047-.43-.04-1.08-.593-1.17-1.01-1.44-7.12-6.21-9.96-13-10.2-4 1-6 2-8 2zm-80 140h-39v-3.19c1.46-.26 3.01-.396 4.46-.814 2.57-.747 3.68-2.29 2.88-4.81-1.32-4.19-3.35-8.17-4.56-12.4-1.36-4.77-4.02-6.27-8.91-5.81-5.48.52-11.1.156-16.6.095-1.29-.013-1.98.33-2.39 1.65-1.39 4.49-3.15 8.89-4.31 13.4-1.29 5.06-.63 7.51 5.93 8.61 2.17.364 2.63 1.08 2.04 3.14h-30.9v-2.63c7.8-.353 10.9-6.1 13.6-12.2 9.45-21.4 18.9-42.9 28.3-64.3.62-1.41 1.09-2.65 3.07-2.42 2 .242 3.91-.478 5.18 2.32 10.1 22.1 20.3 44.2 30.6 66.2.983 2.11 2.27 4.2 3.85 5.87 1.31 1.37 3.18 2.62 4.99 3 3 0 3 1 2 4zm-52-59c-3.31 8.88-6.38 17.2-9.53 25.6h20.1l-10-26zm-81 59c-.6-3.13-.576-3.18 2.18-3.49 4.53-.526 7.26-3.63 7.36-8.7.116-5.38.042-10.8.044-16.2.002-13.2.063-26.4-.06-39.6-.02-2.14-.553-4.39-1.38-6.38-1.04-2.51-3.42-3.72-6.06-3.78-2.39-.06-2.74-1.13-2.17-3.25h38.8c.746 2.7.608 2.92-1.97 3.18-4.33.425-7.16 3.34-7.51 7.88-.156 2.06-.12 4.13-.12 6.19-.01 16.6-.017 33.2.02 49.8.003 1.68.115 3.41.51 5.03.826 3.4 3.24 5.35 6.73 5.78 3.02.364 3.02.364 2.42 3.5h-39zm262 38c-1.28-2.03-2.6-3.81-3.6-5.74-1.98-3.83-1.03-7.87 2.58-10.3 4.52-3.06 9.43-3.73 14.5-1.37 4.14 1.94 4.86 5.92 1.63 9.18-1.58 1.6-3.59 2.79-5.43 4.14-.64.466-1.34.844-2.37 1.49 4.25 4.82 8.31 9.42 12.5 14.2 3.17-6.43 1.58-10.7-4.64-13.6.996-3.49 1.08-3.41 4.58-3.51 5.65-.16 11.3-.4 16.9-.864 2.08-.167 4.65-.77 4.9-3.33.27-2.68-2.24-3.54-4.27-4.42-1.19-.515-2.47-.838-3.74-1.26 1.84-2.69 3.14-3.08 5.9-1.83 3.08 1.4 4.57 4.34 3.65 7.41-.9 3.03-2.96 5.28-5.8 6.3-4.19 1.5-8.57 2.44-13.2 3.71.562 3.8-.436 7.85-2.32 11.8-.24.5.134 1.7.61 2.08 3.09 2.48 6.22 4.92 9.49 7.15.935.637 2.41.785 3.6.687 3.23-.27 4.55-3.22 2.78-5.92-.278-.428-.57-.85-1.02-1.52 1.02-.65 1.97-1.26 2.89-1.84 3 2.6 2.49 6.87-1.23 9.31-3.65 2.4-7.87 2.84-11.9 1.59-3.44-1.07-6.58-3.08-10.1-4.8-2.48 1.2-5.41 2.92-8.54 4.09-5.58 2.08-11.2 1.67-16.5-1.1-6.01-3.16-6.9-9.87-1.88-14.4 1.95-1.77 4.21-3.22 6.35-4.77-3 0-1 0 0-1zm1 1c-4.22 2.28-6.58 6.48-6.1 10.8.442 4.02 3.08 7.1 6.96 8.26 4.01 1.19 9.98.47 13.4-3.85-5-4-9-9-14-15zm5-5c3.82-2.4 5.32-5.9 4.23-9.61-.692-2.37-3.28-3.85-5.71-3.26-2.38.582-3.53 2.35-3.01 5.03 1 3 3 5 5 8zm-217 25c-8.64-.136-14.5-1.23-19.8-4.45-9.37-5.7-10.1-16.8-1.73-23.8 10.2-8.44 28.9-7.9 37.7 1.07 7.07 7.23 5.48 18.6-3.38 23.5-5 2-10 3-13 3zm9-16c-.166-5.38-2.11-10.1-5.78-13.5-6.09-5.71-16.6-3.34-19.3 4.46-1.74 5-1.5 10 .737 14.9 2.47 5.34 7.85 8.38 13.6 7.89 4.98-.427 8.47-3.44 9.9-8.7v-5zm169-10c-1.28.688-2.32 1.02-3.07-.488-1.38-2.78-3.8-4.11-6.73-4.38-2.53-.225-5.11-.044-7.79-.044v12.3c4.52 1.07 6.58.23 9.41-3.48.422-.555 1.57-.562 2.65-.91v11.3c-1.36.382-2.45.544-3.13-1.19-.875-2.21-2.95-2.75-5.06-2.95-1.23-.114-2.48-.022-3.69-.022 0 3.55-.05 7.05.02 10.6.038 1.64 1.02 2.68 2.68 2.61 3.22-.142 6.46-.248 9.63-.785 2.19-.37 3.78-1.99 4.52-4.17.583-1.73 1.47-2.24 3.2-1.1-.19 2.26-.294 4.61-.644 6.93-.078.534-.96 1.36-1.48 1.36-10.6.068-21.2.04-31.9.015-.19 0-.39-.158-1.12-.48.856-.457 1.34-.857 1.88-.977 2.56-.576 3.38-1.55 3.39-4.32.023-7.01.02-14 0-21-.008-2.89-.71-3.75-3.51-4.46a8.778 8.778 0 01-1.05-.32c-.103-.04-.146-.228-.43-.725.683-.13 1.23-.335 1.78-.335 9.29-.02 18.6.01 27.9-.044 1.33-.01 1.86.48 1.97 1.73v2zm-59-6c0 4.19-.043 8 .064 11.8.012.398.916 1.1 1.41 1.1 3.28.054 6.6.136 8.1-3.81.188-.487 1.45-.558 2.5-.915v11.4c-1.41.457-2.38.33-3.06-1.32-.94-2.28-3.15-2.69-5.33-2.88-1.09-.092-2.2-.015-3.86-.015.216 3.81.332 7.59.745 11.3.075.68 1.42 1.75 2.14 1.73 3.5-.105 7.16.03 10.4-1.02 2.11-.68 3.61-3.24 5.39-4.96l-.41-.638 2.27.477c-.21 2.54-.296 4.96-.7 7.34-.088.514-1.31 1.19-2.03 1.2-8.4.08-16.8.047-25.2.047h-6.55l-.196-.715c.515-.278 1.01-.73 1.55-.81 2.18-.33 3.26-1.58 3.26-3.73.02-7.37.018-14.7.014-22.1 0-2.11-.928-3.5-3.12-3.88-.54-.095-1.06-.344-1.63-1.08.534-.125 1.06-.355 1.6-.36 9.29-.02 18.6 0 27.9-.032 1.26-.007 1.88.346 1.94 1.72.084 1.82.378 3.64.578 5.41-1.43.918-2.4.88-3.17-.636-1.23-2.41-3.33-3.76-5.96-4.05-3 3-6 3-9 2zm188-1h31l.894 6.88c-1.44.85-2.45.903-3.28-.73-1.14-2.25-3.12-3.59-5.58-3.9-2.81-.35-5.66-.43-8.64-.64-.062 1.04-.13 1.69-.133 2.33-.012 3.45-.005 6.9-.005 10.3 4.67 1.05 6.63.233 9.34-3.44.4-.545 1.46-.605 2.54-1.01v11.4c-1.27.27-2.28.47-2.93-1.22-.887-2.3-3.06-2.8-5.26-3-1.1-.1-2.2-.02-3.42-.02 0 3.7-.117 7.41.105 11.1.043.728 1.43 1.96 2.18 1.95 3.43-.046 6.88-.257 10.3-.805 2.14-.347 3.61-2.05 4.25-4.13.568-1.83 1.54-1.88 3.15-1.05l-.73 8.23h-33.7l-.233-.454c.37-.277.727-.766 1.12-.807 3.25-.332 3.76-2.18 3.78-4.94.037-5.82.015-11.6.015-17.5 0-1.11.034-2.21-.03-3.32-.124-2.22-1-3.82-3.46-4.12-.456-.056-.884-.348-1.32-.526zm-344 1v8.88c-1.14-.595-2.31-.808-2.62-1.44-2.85-5.76-6.66-8.14-12.9-7.77-6.02.354-10.7 2.95-12.9 8.74-2.56 6.62-.817 12.5 3.93 17.5 4.33 4.5 9.84 5.44 15.5 3.01 3.5-1.51 6.57-4.04 9.94-6.18.11 1.45.318 3.23.324 5 .002.39-.644.968-1.11 1.14-10.4 3.98-21 5.48-31.5.323-11.3-5.53-12.2-19.4-1.89-26.6 4-2.78 8.57-3.8 13.3-4.24 8-2 14-1 21 1zm410 30c.568-.232 1.11-.576 1.7-.68 1.85-.328 2.4-1.3 1.58-2.98-.867-1.78-1.72-3.58-2.74-5.28-.295-.495-1.14-.895-1.74-.91-3.1-.09-6.19-.042-9.29-.042-.146 0-.324-.045-.438.018-2.59 1.5-2.72 4.29-3.38 6.74-.504 1.91 1.1 2.27 2.51 2.61.517.126 1.01.347 1.51.517l-.076.562h-15.1c.156-.328.224-.65.332-.668 3.57-.5 5.31-3 6.83-5.94 4.11-7.9 8.36-15.7 12.6-23.6.562-1.05.854-2.26 2.59-2.25 1.65.008 2.1 1.03 2.71 2.12 4.41 7.91 8.83 15.8 13.2 23.7 1.35 2.4 2.65 4.82 5.75 5.36.275.045.467.587.7.896-.33.216-.653.61-.99.616-6.02.034-12 .025-18.1.025l-4-2zm-1-12l-5.05-10.1-4.55 10.1h10zm-330-5c3.63-.046 7.4.783 9.2-3.77.197-.5 1.56-.537 2.62-.865v11.3c-1.44.468-2.44.426-3.11-1.26-.928-2.32-3.13-2.72-5.31-2.92-1.08-.104-2.18-.02-3.48-.02 0 3.89-.173 7.7.13 11.5.072.882 1.71 1.71 2.72 2.42.507.353 1.23.403 2.15.67-1.58 1.05-15.9 1.35-19.7.55.57-.495.87-.953 1.27-1.07 3.36-1 3.64-1.3 3.65-4.71.014-6.78.014-13.6 0-20.4-.005-3.52-.27-3.83-3.75-4.91-.308-.097-.573-.326-.79-.95h31l.86 6.78c-1.37.836-2.38.97-3.18-.576-1.6-3.1-4.5-4.13-7.69-4.42-2.11-.19-4.26-.036-6.61-.036v12zm38-12v12.4c4.66 1.04 6.65.196 9.42-3.52.413-.56 1.59-.535 2.67-.864v11.3c-1.48.476-2.56.45-3.22-1.36-.72-1.97-2.6-2.48-4.48-2.72-1.38-.17-2.78-.173-4.22-.253 0 4.03-.155 7.9.125 11.7.058.825 1.64 1.61 2.6 2.28.5.35 1.21.413 1.82.6l-.113.693h-18.9l-.156-.542c.57-.23 1.12-.56 1.71-.672 1.95-.35 3.04-1.45 3.05-3.44.02-7.58.02-15.2 0-22.8-.007-1.97-1.03-3.13-3-3.49-.592-.105-1.15-.36-1.73-.55l.043-.624c.575-.1 1.15-.277 1.73-.278 9.21-.017 18.4.007 27.6-.037 1.35-.008 2.01.328 2.06 1.82.06 1.75.39 3.5.61 5.32-1.27.737-2.3 1.06-3.12-.53-1.59-3.09-4.44-4.2-7.65-4.47-4 0-6 1-9 1zm192 29c.56-.238 1.1-.603 1.67-.688 1.89-.28 3.05-1.4 3.07-3.22.084-8.4.04-16.8.04-25.1-5.01-1.49-9.06.303-10.7 4.86-.644 1.83-1.64 1.71-3.18 1.3.097-1.51.17-2.96.286-4.41.112-1.45.27-2.89.422-4.43.854-.055 1.5-.133 2.15-.135 10.5-.007 20.9.03 31.4-.04 1.73-.01 2.52.35 2.5 2.27-.023 2.19.332 4.38.588 7.36-1.3-.53-2.59-.643-2.92-1.27-2.99-5.49-4.67-6.47-10.9-5.78-.04.734-.104 1.51-.106 2.29-.006 6.93-.006 13.9-.004 20.8 0 4.31.002 4.31 4.16 5.65.347.112.68.248 1.02.373l-.406.726h-18.9v-1z"></path> <path fill="#E51837" d="M194 231c8.98.02 17.7-.668 26.2 1.86 8.76 2.61 15.2 8.14 18.9 16.4 5.3 11.7 6.8 24.1 4.47 36.7-2.96 16.1-15.6 26.7-32 27.6-3.22.176-6.48.197-9.7-.013-4.52-.294-7.08-2.94-7.52-7.47-.18-1.83-.296-3.67-.296-5.51-.02-22.2-.013-44.4-.013-66.6v-3zm197-61v-22c0-5.39.067-10.8-.036-16.2-.038-1.77.427-2.43 2.3-2.52 10-.52 17.3 4.98 20 15.7.753 3.02 1.15 6.32.794 9.39-1.07 9.35-7.3 14.9-16.9 15.6h-6zm170-29c7.32.562 14.3.586 21 1.74 7.8 1.33 13.9 5.92 17.4 13.1 6.14 12.6 7.8 25.8 3.1 39.2-3.78 10.8-12.1 16.3-23.1 18.1-3.6.576-7.34.58-11 .48-4.68-.137-7.06-2.72-7.3-7.43-.07-1.32-.107-2.65-.107-3.98-.006-19.2-.004-38.3-.004-57.5v-3zm198 101c3.01 0 5.81-.143 8.58.03 4.03.263 8.11.43 12.1 1.2 8.49 1.67 14.8 6.56 18.4 14.4 5.25 11.3 6.55 23.3 3.34 35.3-3.19 12-12.8 19.7-25.2 20.9-3.72.343-7.51.424-11.2.06-3.61-.355-5.38-2.59-5.81-6.17-.14-1.17-.152-2.35-.152-3.53-.008-19.8-.008-39.7-.008-59.5v-2zm-156 42c-.064 5.72-1.31 13-4.65 19.8-6.4 13-21.3 16.9-33.3 8.69-7.28-4.99-11.6-12.1-13.8-20.4-3.24-12.2-3.29-24.4 1.44-36.2 6.12-15.3 21-17.2 29.8-13.6 6.39 2.56 10.4 7.54 13.7 13.3 5 8 7 17 7 28zm-248-23l10.6 25.6h-20.1c3-9 6-17 9-26zm182 98c4.84 5.16 9.56 10.2 14.3 15.2-3.47 4.32-9.43 5.04-13.4 3.85-3.89-1.16-6.52-4.24-6.96-8.26-1-4 2-8 6-11zm5-5c-2-2.32-3.88-4.73-4.49-7.84-.526-2.68.625-4.45 3.01-5.03 2.42-.59 5.02.884 5.71 3.26 1 4-1 7-5 10zm-208 9c-.268 1.66-.396 3.37-.834 4.99-1.44 5.27-4.93 8.27-9.91 8.7-5.8.49-11.2-2.55-13.6-7.89-2.24-4.82-2.48-9.85-.737-14.9 2.72-7.8 13.3-10.2 19.3-4.46 5 3 7 8 7 13zm363 2h-9.6l4.55-10.1c2 3 4 7 5 10z"></path> </svg>