<svg xmlns="http://www.w3.org/2000/svg" viewBox="0 0 960 560"><title>eviCore</title> <path fill="#fff" d="M363.1 468.3c-8-8.5-7.6-21.8.8-29.8 8.5-8 21.8-7.6 29.8.8 8 8.5 7.6 21.8-.8 29.8-3.9 3.7-9.1 5.8-14.5 5.8-5.7 0-11.3-2.4-15.3-6.6m83.8 61.3c-10.5-5.1-14.8-17.7-9.8-28.2 5.1-10.5 17.7-14.8 28.2-9.7 10.5 5.1 14.8 17.7 9.8 28.2-3.5 7.3-10.9 11.9-19 11.9-3.2 0-6.3-.8-9.2-2.2m99.7 28.3c-11.6-1.2-20-11.5-18.9-23.1 1.2-11.6 11.5-20 23.1-18.9 11.6 1.2 20 11.5 18.9 23.1-1.1 10.8-10.1 19-21 19-.7 0-1.4 0-2.1-.1m77.7-23c-2.9-11.3 3.8-22.8 15.1-25.7 11.3-3 22.8 3.8 25.7 15 3 11.2-3.8 22.8-15 25.7h-.1c-1.7.4-3.5.7-5.3.7-9.6 0-18-6.4-20.4-15.7m90.4-33.8c-6.8-9.5-4.5-22.7 4.9-29.4 9.5-6.7 22.7-4.5 29.4 5 6.7 9.5 4.5 22.7-4.9 29.4-3.6 2.5-7.8 3.9-12.2 3.9-6.8 0-13.2-3.3-17.2-8.9m72.3-63.9c-9.8-6.4-12.5-19.4-6.2-29.2 6.4-9.8 19.4-12.5 29.2-6.2 9.8 6.4 12.5 19.4 6.2 29.2-3.9 6-10.6 9.6-17.7 9.6-4.1 0-8.1-1.2-11.5-3.4m43.4-86.2c-11.4-2.2-18.9-13.2-16.7-24.6v-.4c2.2-11.4 13.2-19 24.6-16.8 11.5 2.2 19 13.2 16.8 24.7v.5c-1.9 9.9-10.6 17.1-20.7 17.1-1.4-.1-2.7-.2-4-.5m-17.1-113.2c-2.3-11.4 5.1-22.5 16.5-24.9 11.4-2.3 22.5 5.1 24.8 16.5 2.3 11.4-5.1 22.5-16.5 24.8h-.1c-1.4.3-2.8.4-4.2.4-10 .1-18.6-7-20.5-16.8m-33.6-81.6c-6.3-9.7-3.6-22.8 6.2-29.1 9.7-6.4 22.8-3.6 29.2 6.1v.1c6.3 9.8 3.6 22.8-6.2 29.2a21.2 21.2 0 01-11.5 3.4c-7.2 0-13.8-3.7-17.7-9.7m-61-64.3c-9.4-6.8-11.5-20-4.6-29.4 6.9-9.4 20.1-11.5 29.5-4.6 9.4 6.9 11.5 20.1 4.6 29.5-4 5.4-10.3 8.6-17 8.6-4.5-.1-8.9-1.5-12.5-4.1m-79.9-38.8c-11.2-3.2-17.7-14.8-14.6-26 3.2-11.2 14.8-17.7 26-14.6 11.2 3.2 17.7 14.8 14.6 26-2.6 9.1-10.9 15.4-20.3 15.4-1.9 0-3.8-.3-5.7-.8" class="st0"></path> <path fill="#fff" d="M638.8 53.1c-11.2-3.2-17.7-14.8-14.6-26 3.2-11.2 14.8-17.7 26-14.6 11.2 3.2 17.7 14.8 14.6 26-2.6 9.1-10.9 15.4-20.3 15.4-1.9 0-3.8-.3-5.7-.8M527.7 24.8c-.9-11.6 7.8-21.8 19.4-22.7 11.6-.9 21.8 7.8 22.6 19.4.9 11.6-7.8 21.7-19.4 22.6h-1.7c-10.8 0-20-8.4-20.9-19.3m-91.1 31.7c-4.9-10.5-.4-23.1 10.2-28 10.5-4.9 23.1-.4 28 10.2 4.9 10.6.4 23.1-10.2 28-2.8 1.3-5.8 2-8.9 2-8.2 0-15.7-4.8-19.1-12.2m-73.8 62.2c-8.4-8.1-8.7-21.4-.6-29.9 8.1-8.4 21.4-8.7 29.8-.6 8.4 8.1 8.7 21.4.6 29.8-4 4.2-9.5 6.5-15.2 6.5-5.4.1-10.7-2-14.6-5.8m-54.7 51.7c-6.7 9.3-4.6 22.2 4.6 28.9h.1c9.3 6.7 22.2 4.6 29-4.6 6.7-9.3 4.6-22.3-4.7-29-4.1-2.9-9-4.3-14-3.8-6.1.5-11.5 3.6-15 8.5M137.6 276c.3 8 3.5 15.5 15.3 15.5 7.4 0 12-3.5 13.3-8.5h32c-2.9 17.2-18.9 30.2-45.2 30.2-30.4 0-48.6-17.4-48.6-44.2 0-24.3 16-44.3 47.9-44.3 30.5 0 47.2 19.1 47.2 38.8 0 4.2-.3 8.4-1 12.5h-60.9zm0-16h29c0-9.1-5.6-14.7-14.3-14.7-8.8 0-14.7 5.3-14.7 14.7m94.1-32.9l17.6 49.9 18-49.9h34.4l-38 83.8h-28.9l-37.5-83.8zm75.4 0h33.1v83.8h-33.1zm154.6 42.6c-3.5 24.4-23.2 44.6-55.7 44.6-36.5 0-58.1-26.3-58.1-55.9 0-29.5 21.3-55.9 57.1-55.9 34.2 0 53.4 20.9 56.3 46.5h-32.9c-1.8-10-9.4-17.9-22.4-17.9-17 0-25.7 12.9-25.7 27.2 0 15.4 9.8 27.2 26.3 27.2 11.7 0 19.8-7.3 21.8-16l33.3.2zm6.7-.6c0-24.4 17.5-44.3 48.7-44.3 31.2 0 48.9 19.9 48.9 44.3 0 24.1-17.7 44.2-48.9 44.2s-48.7-20.1-48.7-44.2m64.4 0c0-9.4-6-16.5-15.7-16.5s-15.7 7.1-15.7 16.5c0 9.1 6.2 16.5 15.7 16.5 9.4 0 15.7-7.4 15.7-16.5m107.7-12.3c-3.7-1.1-7.5-1.6-11.3-1.5-12.7 0-22.4 6-22.4 26v29.5h-33.1v-83.7h33.1v13.3c5-9.3 14.6-15 25.1-15 2.9-.1 5.8.3 8.6 1.2v30.2zm36.1 19.2c.3 8 3.5 15.5 15.4 15.5 7.4 0 12-3.5 13.3-8.5h32c-2.9 17.2-18.9 30.2-45.2 30.2-30.4 0-48.5-17.4-48.5-44.2 0-24.3 16-44.3 47.9-44.3 30.5 0 47.2 19.1 47.2 38.8 0 4.2-.3 8.4-1 12.5h-61.1zm0-16h29c0-9.1-5.6-14.7-14.3-14.7-8.8 0-14.7 5.3-14.7 14.7m-369.5 77h8v29.8c2.8-5.4 8.5-8.7 14.6-8.4 5.7 0 10 2 12.4 5.5 2.3 3.1 3.2 6.8 3.2 12.6V401h-8v-22c0-7.7-2.7-13.5-10.5-13.5s-11.8 6.8-11.8 14.2V401h-8l.1-64zm56.3 45.3c.4 7 3.8 13 12.9 13 6.2 0 9.2-3 10.5-6.6h8c-1.4 7-8.1 13.3-18.6 13.3-14 0-20.7-9.8-20.7-21.8 0-12.5 7.4-21.8 20.5-21.8 10.3-.3 18.9 7.9 19.2 18.2v.5c0 1.7-.1 3.5-.4 5.2h-31.4zm.1-6h24c.4-6.2-4.3-11.5-10.5-11.9h-1.2c-7.1 0-12.1 4.4-12.3 11.9zm83.5-16.8V401h-7.9v-7.2c-3 5.2-8.6 8.3-14.5 8.2-12 0-21.8-9.8-21.8-21.8s9.8-21.8 21.8-21.8c6-.1 11.5 3.1 14.5 8.2v-7.1h7.9zm-7.8 20.7c0-8-5.5-14.7-14-14.7s-13.9 6.8-13.9 14.7c0 7.9 5.5 14.6 13.9 14.6 8.4.1 14-6.6 14-14.6m22.1-43.2h8v64.1h-8zm44.8 64c-2.4.4-4.7.5-7.1.5-5.1 0-13.1-.9-13.1-14.5v-20.8h-7.7v-6.7h7.7v-14h8v14h10.8v6.7h-10.8v19.1c0 8 2.8 9 6.9 9 1.8 0 3.6-.1 5.4-.4l-.1 7.1zm8.5-64h8v29.8c2.8-5.4 8.5-8.7 14.6-8.4 5.7 0 10 2 12.4 5.5 2.3 3.1 3.2 6.8 3.2 12.6V401h-8v-22c0-7.7-2.7-13.5-10.5-13.5s-11.8 6.8-11.8 14.2V401h-8l.1-64zm80.8 37.6c-.6-5.1-3.7-9.1-11.5-9.1-8.6 0-12.9 6.9-12.9 14.7 0 7.8 4.1 14.6 13.3 14.6 6.9 0 9.9-3.2 11.2-8.1h8c-1.3 8.6-7.6 15.3-19.7 15.3-13.5 0-20.7-10.5-20.7-21.8s7.1-21.8 20.6-21.8c13.5 0 18.9 8.1 19.6 16.2h-7.9zm59.5-15.1V401h-7.8v-7.2c-3 5.2-8.6 8.3-14.5 8.2-11.7.1-21.2-9.3-21.3-20.9v-.8c0-11.8 8.6-21.8 21.3-21.8 6-.1 11.5 3.1 14.5 8.2v-7.1l7.8-.1zm-7.8 20.7c0-8-5.5-14.7-14-14.7s-13.9 6.8-13.9 14.7c0 7.9 5.5 14.6 13.9 14.6 8.4.1 14-6.6 14-14.6m47.7-13.4c-1.3-.3-2.7-.5-4-.5-9.2 0-13.8 6.5-13.8 16.5V401h-8v-41.5h8v8.1c2.5-5.4 7.9-8.8 13.8-8.8 1.4-.1 2.7.2 4 .6v7.4zm11.5 15.5c.4 7 3.7 13 12.9 13 6.2 0 9.2-3 10.5-6.6h8c-1.4 7-8.1 13.3-18.6 13.3-14 0-20.8-9.8-20.8-21.8 0-12.5 7.4-21.8 20.5-21.8 10.3-.3 18.9 7.9 19.2 18.2v.5c0 1.7-.1 3.5-.4 5.2h-31.3zm0-6h24c.3-6.2-4.4-11.4-10.6-11.8h-1.1c-7-.1-12.1 4.3-12.3 11.8z" class="st0"></path> </svg>