<svg xmlns="http://www.w3.org/2000/svg" viewBox="0 0 960 560"><title>GradesFirst</title> <path fill="#DA2D27" d="M762 467c-2.35-.22-4.69-.478-7.04-.65-16.8-1.23-33.1-4.53-48.9-10.2-47.8-17.3-83.5-48.4-107-93.7-9.06-17.7-14.7-36.6-17.5-56.3-1.36-9.7-2.06-19.4-1.78-29.2 1.3-46.9 17.7-87.8 49.5-122 27.3-29.6 61-48.3 100-56.8 9.93-2.14 20-3.42 30.2-3.84.59-.027 1.17-.208 1.75-.315h15.9c.524.11 1.04.27 1.57.32 6.26.606 12.6.935 18.8 1.84 20.9 3.04 40.8 9.3 59.5 19.1 42.7 22.5 73 56.1 90.2 101 6.08 15.9 9.61 32.4 10.9 49.4.175 2.35.44 4.69.657 7.04v15.3c-.104.523-.256 1.05-.307 1.58-.566 5.77-.924 11.6-1.7 17.3-2.67 19.6-8.43 38.2-17.4 55.8-23.6 45.9-60 77.2-109 94.2-15.1 5.28-30.7 8.33-46.7 9.49-2.28.175-4.56.435-6.85.654-5 1-10 1-16 1zm-76-231h-81.5c-2.14 0-2.15.005-2.15 2.18v91h31.2v-37.2h2.24c15 0 30-.018 45.1.025 1.46.006 1.9-.416 1.88-1.88-.08-4.47-.028-8.95-.03-13.4 0-2.26-.003-2.26-2.27-2.26-14.9-.003-29.7-.003-44.6-.003h-2.24v-21h52.4c1-6 1-12 1-18zm114 90c.71.243 1.27.45 1.83.634 6.22 2.02 12.6 3.09 19.1 3.7 10.7 1.02 21.3.837 31.8-1.45 6.31-1.37 12.3-3.56 17.2-8.02 7.61-6.92 7.28-18-.784-24.4-1.5-1.19-3.17-2.22-4.86-3.12-5.75-3.06-12.1-4.38-18.3-6.04-3.86-1.03-7.73-2.24-11.4-3.92-2.99-1.39-2.92-4.82.014-6.38 1.8-.952 3.92-1.52 5.95-1.76 6.43-.76 12.8.33 19 1.77 2.07.48 4.1 1.08 6.24 1.64 1.8-4.89 3.54-9.62 5.35-14.5-1.25-.372-2.29-.712-3.34-.983-11.2-2.94-22.6-3.67-34.1-2.55-6.56.64-12.9 2.16-18.9 5.2-4.14 2.12-7.77 4.85-10.2 8.94-3.56 6.02-2.86 12.6 2.31 17.3 2.5 2.26 5.49 4.08 8.51 5.62 5.73 2.94 12 4.17 18.2 5.74 3.07.778 6.09 1.89 9.05 3.05 1.7.668 2.74 2.13 2.69 4.03-.06 2.01-1.35 3.26-3.12 3.88-1.55.54-3.17.94-4.8 1.15-6.94.908-13.8-.083-20.5-1.49-3.81-.792-7.54-1.92-11.4-2.94-3 3-5 8-7 13zm119-49h21.9c.05-.63.113-1.05.113-1.48.005-4.2-.05-8.4.035-12.6.022-1.36-.47-1.68-1.73-1.67-6.07.046-12.1.02-18.2.02h-2.2v-18c-.312-.16-.37-.212-.412-.203-9.7 1.78-19.4 3.58-29.1 5.36-.926.172-1.08.695-1.07 1.52.032 3.15.02 6.29.01 9.44-.004.588-.067 1.17-.108 1.89-3.97 0-7.78.027-11.6-.016-1.08-.01-1.6.23-1.58 1.46.062 4.36.022 8.73.038 13.1 0 .365.122.73.2 1.18 3.67 0 7.26-.002 10.8 0 2.2 0 2.2 0 2.2 2.13 0 8.51-.03 17 .017 25.5.015 2.09.12 4.2.44 6.26 1.15 7.45 4.95 13 12 16 4.98 2.15 10.2 3.23 15.6 3.52 7.63.417 15.2-.004 22.7-1.42.7-.133 1.34-.123 1.31-1.25-.13-3.98-.123-7.95-.162-11.9-.013-1.03 0-2.05 0-3.16-.61.046-.936.084-1.26.092-3.91.046-7.83.315-11.7.076-4.51-.278-7.1-2.81-8.02-7.24-.235-1.12-.292-2.3-.3-3.45-.025-6.18-.013-12.4-.013-18.6v-7zm-180-15c1.3 22.6.16 45 .615 67.5h31v-2.28c0-10.3-.02-20.5.008-30.8.02-7.34 2.95-11.7 9.66-14.2 4.56-1.71 9.33-2.11 14.2-1.9 2.12.097 4.24.297 6.45.453v-19.9c-6.58-.798-12.9-.485-19.2 1.78-6.22 2.27-11.2 6.08-14.7 11.9-.562-3.67-.926-7.18-1.2-10.7-.107-1.39-.57-1.95-2.11-1.93-7.67.086-15.4.038-23 .046-1-1-2 0-2 0zm-14 67v-67.6c-.405-.062-.726-.15-1.04-.153-9.55-.006-19.1.01-28.7-.027-1.26-.005-1.43.596-1.43 1.64.016 21.5.02 43.1-.013 64.6-.004 1.27.45 1.57 1.64 1.57 9.05-.04 18.1-.02 27.2-.02h2v-1zm-16-76c.884 0 1.78.06 2.65-.016 4.13-.33 8.07-1.3 11.4-3.98 2.14-1.73 3.53-3.91 3.63-6.77.12-3.66-1.64-6.32-4.5-8.35-3.26-2.33-7.02-3.15-10.9-3.37-4.91-.282-9.71.267-14.1 2.78-7.35 4.22-7.4 12.7-.087 17 4 1 8 2 12 2z"></path> <path d="M.003 280c.715-3.04 1.17-6.18 2.19-9.12 3.63-10.4 11-17.7 20.3-23.1 9.19-5.43 19.2-8.61 29.7-10.4 20.2-3.43 40.4-2.99 60.5 1.21 1.17.248 2.32.61 3.65.958l-6.46 16.8c-3.86-.825-7.54-1.86-11.3-2.37-14.2-1.95-28.5-2.58-42.5 1.5-6.62 1.92-12.7 4.94-17.3 10.2-9.91 11.3-7.94 28.7 4.26 38.1 6.01 4.64 13 6.98 20.4 8.2 8.5 1.4 17 1.34 25.6.12.59-.082 1.17-.235 1.8-.37v-19.5h-22.2v-16.4h50.9c.044.61.116 1.19.116 1.77.005 15.1-.018 30.3.04 45.4.005 1.47-.473 1.96-1.87 2.25-18.9 3.89-37.9 5.68-57.1 4.36-11.8-.812-23.3-2.74-34.2-7.53-9.99-4.39-18.2-10.8-23.3-20.7-2.06-3.89-3.34-8.03-3.94-12.4-.068-.483-.22-.957-.333-1.44-.125-2-.125-4-.125-7z"></path> <path fill="#fff" d="M362 268c-.397-.37-.798-.716-1.2-1.05 0 0 0 1 1 1zm2 52c-5.26 5.8-12.1 8.49-19.6 9.87-11.7 2.16-23.1 1.35-34-3.82l.005.002c10.8 5.17 22.3 5.99 34 3.82 7.45-1.38 14.3-4.07 19.6-9.87.15-.166.45-.19.796-.324v-.003h-1zm204-23c-3.88-3.25-8.45-5.2-13.2-6.61-5.44-1.61-11-2.86-16.4-4.46a22.842 22.842 0 01-5.82-2.66c-2.07-1.33-2.17-3.98-.217-5.48 1.27-.976 2.87-1.7 4.43-2.05 5.71-1.31 11.4-.56 17.1.483 3.5.642 6.95 1.59 10.6 2.43 1.72-4.67 3.45-9.36 5.18-14-.215-.152-.34-.27-.487-.33a9.98 9.98 0 00-.94-.317c-14.4-3.94-29-4.82-43.7-1.69-6.54 1.4-12.7 3.86-17.7 8.52-6.37 5.92-9 16.7 1.72 23.8 2.78 1.84 5.79 3.53 8.94 4.59 5.79 1.95 11.8 3.32 17.6 5.06 2.31.684 4.58 1.58 6.76 2.61 1.59.75 2.48 2.18 2.37 4.05-.11 1.8-1.16 3.02-2.75 3.61-1.58.597-3.24 1.12-4.91 1.34-7.21.96-14.3-.02-21.4-1.54-3.64-.78-7.22-1.87-10.9-2.84-1.77 4.8-3.56 9.65-5.41 14.7.723.262 1.23.48 1.75.63 17 4.91 34.1 5.66 51.4 2.06 6.06-1.26 11.7-3.52 16.4-7.73 7-8 7-19-1-25zm-175-66h-.006c.483 32.5-.554 65.1.677 97.8h-27.2v.005h27.2c-2-33-1-65-1-98zm-198 30c-6.58-.842-12.9-.4-19 1.84-6.23 2.27-11.1 6.2-14.7 11.9-.602-3.74-1.01-7.28-1.27-10.8-.095-1.32-.48-1.79-1.86-1.78-7.73.062-15.5.03-23.2.038-.478 0-.955.075-1.48.123 1.35 22.5.263 44.9.505 67.3h30.9v-2.1c0-10.5-.006-21 0-31.5.006-6.8 2.78-10.9 9.1-13.5 4.8-1.97 9.84-2.37 15-2.16 2.02.084 4.03.298 6.09.453v-19z"></path> <path d="M393 231h-30.9c10.4 0 20.6 0 30.9.002zm-31 0c0 12.2 0 24.2-.004 36.7l.004.004v-37zm-70 73c-3.82-14.5 2.27-28.8 15.5-36.8 8.01-4.81 16.8-6.93 26-7.23 6.54-.212 13 .354 19.3 2.4 2.88.937 5.56 2.23 8.13 4.32-2.56-2.09-5.25-3.38-8.13-4.32-6.28-2.05-12.7-2.61-19.3-2.4-9.24.307-18 2.42-26 7.23-13.2 7.92-19.3 22.2-15.5 36.8 2.7 10.3 9.46 17.2 18.8 21.6-10-5-17-12-19-22zm73 15c.432 3.28.844 6.44 1.26 9.61h.01c-.42-3.17-.83-6.33-1.26-9.61zm28-88c-10.3-.002-20.5-.002-30.9-.002v36.7l-.005-.004c-.396-.37-.798-.715-1.2-1.05-2.56-2.09-5.25-3.38-8.13-4.32-6.27-2.05-12.7-2.61-19.3-2.4-9.24.307-18 2.42-26 7.23-13.2 7.92-19.3 22.2-15.5 36.8 2.7 10.3 9.45 17.2 18.8 21.6 10.8 5.17 22.3 5.99 34 3.82 7.45-1.38 14.3-4.07 19.6-9.87.154-.163.46-.188.805-.324v.003l.006-.003c.43 3.28.842 6.44 1.26 9.61h27.2c-2-35-1-67-1-100zm-31 60c-.067 1.26-.014 2.54-.014 3.81 0 1.6 0 3.2.003 4.8.002 5.07-2.1 9.07-6.58 11.4-8.67 4.55-17.5 4.57-25.8-.695-10.2-6.48-10-22.8.01-29.9 6.97-4.95 19.3-5.16 26.4-.454 5 2 7 6 7 11z"></path> <path fill="none" d="M239 298c-4.22.485-8.41 1.31-12.1 3.69-2.01 1.31-3.52 3.02-3.64 5.59-.165 3.48 1.32 5.96 4.88 7.22 7.32 2.59 14.3 1.62 20.5-3.08 1.36-1.03 2.74-2.79 2.97-4.37.457-3.16.137-6.44.137-9.98-3-1-8 0-12 0z"></path> <path fill="#fff" d="M227 261c-5.84.527-11.7 1.48-17.5 2.8a66.66 66.66 0 000 .001c5-2 11-3 17-3zm20 16a17.134 17.134 0 00-2.57-1.13c.873.306 1.73.677 2.56 1.13 2.61 1.42 4.21 3.48 4.04 6.98 0-3-1-5-4-7zm-8-2l-.263-.033zm5 1a17.62 17.62 0 00-1.18-.366h1zm-10-1c.635.012 1.27.03 1.91.055h-2zm-31-10c-.924.273-1.85.548-2.79.812l5.78 13.5.003-.002-5.78-13.5c1 0 2-1 3-1zm20 10c-1.74.23-3.47.516-5.19.863 1 0 3 0 5-1zm30-14c2.52.388 5.05.958 7.52 1.7-3-1-5-1-8-2zm-28 14l-.27.024zm-1 0l-.82.095h1zm-17-11l.12-.034z"></path> <path fill="#fff" d="M203 325c-4.53-2.62-8.08-6.18-9.61-11.3-1.98-6.68.686-13.9 6.84-18.7 5.42-4.24 11.8-6.43 18.4-8.01 9.06-2.17 18.3-2.94 27.6-3.14 1.59-.03 3.18-.003 4.93-.003-1.75 0-3.34-.032-4.94.003-9.29.202-18.5.97-27.6 3.14-6.59 1.57-12.9 3.76-18.4 8.01-6.15 4.81-8.82 12.1-6.84 18.7 1.53 5.16 5.08 8.72 9.61 11.3 7.69 4.46 16.1 5.54 24.8 5.16-9 1-17 0-25-5zm52 3c-.394-1.77-.93-3.5-1.4-5.25h-.003c.475 1.75 1.01 3.48 1.4 5.25.245 1.1.717 1.47 1.9 1.46h.002c-1 0-1 0-2-1zm2 1c8.31-.057 16.6-.03 24.9-.035h-25zm-4-7l-.03.002zm-13 7c-3.37.855-6.87 1.32-10.4 1.55 3-1 6-1 10-2zm13-7l.03-.012z"></path> <path d="M225 275l-1.05.122h1zm28 47l-.07.026zm-10-46c-1.24-.34-2.52-.56-3.81-.706 2 0 3 0 4 1zm1 0l-.132-.04zm-5-1l-.518-.045h1zm1 54c4.83-1.22 9.42-3.24 13.6-6.44h-.002c-5 3-9 5-14 6zm-15-54c3.03-.3 6.1-.428 9.18-.377h-9zm3 56l.3-.01 1.23-.073-1.24.072zm55-2c-.388-3.78-1.03-7.45-1.1-11.1-.17-9.44-.07-18.9-.103-28.3-.046-12.1-5.52-20.5-16.8-25a54.603 54.603 0 00-4.5-1.57c1.53.46 3.03.985 4.49 1.57 11.3 4.5 16.7 12.9 16.8 25 .032 9.44-.067 18.9.103 28.3.062 3.67.705 7.34 1.1 11.1-.196.017-.61.087-1.03.087h2.003zm-30-7l.478-.02zm-47-42v.002c.465-.142.73-.21.985-.303a79.73 79.73 0 0111-3.05 81.15 81.15 0 00-11 3.05c-1-1-1-1-1 0zm1-16l.124-.03zm16 11l-.378.053zm-20-10c1.47-.436 2.93-.868 4.39-1.26-2 0-3 1-4 1zm50-4l.234.038c-8.74-1.3-17.4-1.45-26.1-.665 9 0 17 0 26 1zm29 57c-.17-9.44-.07-18.9-.103-28.3-.046-12.1-5.52-20.5-16.8-25a54.383 54.383 0 00-4.49-1.57c-2.47-.744-5-1.32-7.52-1.7l-.234-.038c-8.74-1.3-17.4-1.45-26.1-.665-5.84.528-11.7 1.48-17.5 2.8-.77.177-1.54.372-2.3.577l-.124.032-.12.033c-1.46.394-2.92.827-4.39 1.26-.924.27-1.85.546-2.79.81 2.02 4.73 3.9 9.12 5.77 13.5.46-.143.726-.21.98-.302a79.73 79.73 0 0111-3.05c1.72-.348 3.45-.633 5.19-.863l.378-.053.82-.094 1.05-.122.268-.023a79.7 79.7 0 019.18-.38c.635.014 1.27.03 1.91.057.753.03 1.5.082 2.25.15l.518.045.263.035c1.29.146 2.56.364 3.81.704.397.11.792.233 1.18.367l.132.042c.873.306 1.73.678 2.57 1.13 2.61 1.41 4.21 3.48 4.04 6.98-1.75 0-3.35-.028-4.93.002-9.29.2-18.5.97-27.6 3.14-6.59 1.57-12.9 3.77-18.4 8.01-6.15 4.81-8.82 12.1-6.84 18.7 1.53 5.16 5.08 8.72 9.61 11.3 7.69 4.45 16.1 5.54 24.8 5.16l.296-.013c.414-.02.826-.045 1.24-.07 3.57-.225 7.06-.69 10.4-1.55 4.83-1.22 9.42-3.24 13.6-6.44l.002-.002.03-.012.068-.025.03-.002.477-.02h.004c.475 1.74 1.01 3.48 1.4 5.25.245 1.1.72 1.47 1.9 1.46h.098c8.31-.06 16.6-.028 24.9-.034.416 0 .83-.07 1.03-.087 0-4-1-7-1-11zm-30-11c-.232 1.59-1.61 3.35-2.97 4.37-6.21 4.7-13.2 5.67-20.5 3.08-3.56-1.26-5.04-3.74-4.88-7.22.118-2.57 1.63-4.28 3.64-5.59 3.66-2.38 7.85-3.2 12.1-3.69 4.25-.486 8.55-.646 12.7-.943v11z"></path> <path fill="#fff" d="M411 274c6.68-6.8 14.9-10.7 24.1-12.6 12.1-2.55 24.1-2.65 36 .73 7.56 2.15 14.1 5.85 18.7 11.9-4.67-6.03-11.2-9.73-18.7-11.9-11.9-3.38-24-3.28-36-.73-9.2 1.94-17.5 5.8-24.1 12.6-11.2 11.4-12.4 28.7-2.47 40.6-10-12-9-29 2-41zm21 31v.002zm43 9c3.88-.43 7.72-1.2 11.8-1.84l-.004-.007c-4.04.64-7.89 1.41-11.8 1.84-9.13 1.02-18.3 1.54-27.4-.142-4.06-.75-7.98-1.9-11.3-4.28 3.37 2.39 7.29 3.54 11.4 4.29 9 1 18 1 27 0z"></path> <path fill="#fff" d="M431 302c.125 1.16.434 2.18.882 3.11 0-1-1-2-1-3z"></path> <path d="M432 305l.203.416zm50 23c-13.4 2.25-26.8 2.85-40.2 1.32-8.51-.96-16.7-3.16-24.1-7.52-3.48-2.02-6.35-4.48-8.64-7.22 2.29 2.74 5.16 5.2 8.64 7.22 7.48 4.35 15.6 6.56 24.2 7.52 13.5 1.52 26.9.92 40.2-1.33 3.12-.52 6.2-1.33 9.42-2.04l-4.06-14.2h-.007c1.32 4.6 2.65 9.24 4.06 14.2-3 1-6 2-9 2zm11-49a31.443 31.443 0 00-2.94-4.55c1.08 1.39 2.06 2.9 2.93 4.55 3.74 7.01 4.31 14.5 2.8 22.2-.248 1.27-1.06 1.04-1.85 1.04-8.94-.035-17.9-.08-26.8-.11-11.2-.046-22.4-.073-33.6-.105h-1.92c.733 0 1.33-.003 1.93.008 11.2.033 22.4.058 33.6.104 8.94.03 17.9.076 26.8.11.79.005 1.6.23 1.85-1.04 1-8 1-15-3-22zm-58 29c.547.49 1.12.94 1.7 1.35-.58-.413-1.15-.858-1.69-1.35-.9-.813-1.66-1.71-2.22-2.74 0 1 1 2 2 3zm-2-6c11.2.032 22.4.06 33.6.105 8.94.03 17.9.078 26.8.11.79.002 1.6.23 1.85-1.04 1.51-7.72.94-15.2-2.8-22.2a31.146 31.146 0 00-2.93-4.55c-4.67-6.02-11.2-9.72-18.7-11.9-11.9-3.38-24-3.28-36-.73-9.2 1.94-17.5 5.8-24.1 12.6-11.2 11.4-12.4 28.7-2.48 40.6 2.28 2.74 5.16 5.19 8.64 7.21 7.48 4.36 15.6 6.56 24.1 7.52 13.5 1.52 26.9.925 40.2-1.32 3.12-.52 6.2-1.33 9.42-2.04-1.42-4.94-2.74-9.58-4.06-14.2-4.04.64-7.88 1.41-11.8 1.84-9.13 1.02-18.3 1.54-27.4-.142-4.06-.753-7.98-1.9-11.4-4.29a19.6 19.6 0 01-1.7-1.35c-.896-.812-1.65-1.71-2.21-2.73l-.002-.002-.202-.415a9.36 9.36 0 01-.882-3.11l1-2zm-2-15c.808-1.89 1.33-3.63 2.25-5.14 3.2-5.3 8.28-7.61 14.2-8.24 4.6-.485 9.18-.197 13.4 2.06 4.44 2.4 6.66 6.2 6.99 11.3h-36zm68 39c1.85-5.03 3.64-9.88 5.41-14.7 3.7.978 7.28 2.06 10.9 2.84 7.04 1.51 14.1 2.49 21.4 1.54 1.67-.222 3.33-.744 4.91-1.34 1.59-.6 2.64-1.81 2.74-3.61.108-1.86-.773-3.29-2.36-4.05-2.18-1.02-4.45-1.92-6.76-2.61-5.86-1.73-11.8-3.11-17.6-5.06-3.14-1.06-6.15-2.75-8.94-4.59-10.7-7.08-8.09-17.8-1.72-23.8 5.02-4.66 11.1-7.11 17.7-8.52 14.7-3.14 29.3-2.24 43.7 1.69.318.086.635.196.938.317.15.06.275.18.49.33-1.73 4.68-3.46 9.37-5.18 14-3.62-.847-7.07-1.79-10.6-2.44-5.66-1.04-11.4-1.79-17.1-.48-1.56.357-3.16 1.08-4.43 2.05-1.95 1.5-1.86 4.15.217 5.48 1.78 1.14 3.79 2.07 5.82 2.66 5.45 1.6 11 2.85 16.4 4.45 4.78 1.41 9.35 3.36 13.2 6.61 7.7 6.46 7.88 17.3.362 24.1-4.7 4.21-10.4 6.47-16.4 7.73-17.3 3.59-34.4 2.85-51.4-2.06h-1zm-334 3h-30.9c-.243-22.4.84-44.8-.505-67.3.523-.048 1-.123 1.48-.123 7.73-.01 15.5.026 23.2-.038 1.38-.012 1.77.466 1.86 1.78.254 3.56.664 7.1 1.26 10.8 3.61-5.67 8.48-9.6 14.7-11.9 6.16-2.24 12.5-2.69 19-1.84v19.7c-2.06-.156-4.07-.367-6.09-.453-5.11-.217-10.2.188-15 2.16-6.32 2.6-9.09 6.74-9.1 13.5-.006 10.5 0 21 0 31.5l1 1z"></path> <path fill="#fff" d="M686 236v17.5h-52.4v21h2.24c14.9 0 29.7 0 44.6.003 2.27 0 2.27.003 2.27 2.26.003 4.48-.055 8.95.03 13.4.028 1.46-.42 1.88-1.88 1.88-15-.045-30-.026-45.1-.026h-2.24v37h-31.2v-91c0-2.17.004-2.18 2.14-2.18h81.5zm114 90c1.88-5.1 3.7-10 5.49-14.9 3.91 1.02 7.64 2.15 11.4 2.94 6.77 1.41 13.6 2.4 20.5 1.49 1.62-.207 3.25-.608 4.8-1.15 1.77-.62 3.07-1.87 3.13-3.88.056-1.9-.982-3.36-2.68-4.03-2.96-1.16-5.98-2.27-9.05-3.05-6.2-1.57-12.5-2.81-18.2-5.74-3.01-1.55-6.01-3.36-8.51-5.62-5.18-4.68-5.87-11.3-2.31-17.3 2.42-4.09 6.05-6.82 10.2-8.94 5.92-3.04 12.3-4.56 18.9-5.2 11.5-1.12 22.9-.392 34.1 2.55 1.06.275 2.09.615 3.34.983-1.8 4.92-3.55 9.64-5.35 14.5-2.14-.568-4.17-1.17-6.24-1.65-6.26-1.44-12.6-2.53-19-1.77-2.03.24-4.15.805-5.95 1.76-2.93 1.56-3 4.99-.01 6.38 3.62 1.67 7.49 2.89 11.4 3.91 6.23 1.66 12.6 2.97 18.3 6.04 1.69.907 3.36 1.93 4.86 3.12 8.06 6.4 8.4 17.5.787 24.4-4.9 4.45-10.9 6.64-17.2 8.02-10.5 2.28-21.1 2.46-31.8 1.45-6.49-.612-12.9-1.68-19.1-3.7v2zm119-49v6.61c0 6.19-.018 12.4.014 18.6.005 1.15.064 2.33.297 3.45.915 4.44 3.51 6.96 8.02 7.24 3.89.24 7.81-.03 11.7-.076.327-.007.65-.048 1.26-.092 0 1.1-.007 2.13.005 3.16.04 3.98.03 7.95.164 11.9.04 1.12-.61 1.11-1.31 1.25-7.52 1.42-15.1 1.84-22.7 1.42-5.36-.29-10.6-1.36-15.6-3.52-7.08-3.06-10.9-8.58-12-16-.318-2.06-.43-4.17-.44-6.26-.047-8.51-.02-17-.02-25.5 0-2.13 0-2.13-2.2-2.13-3.59-.003-7.17 0-10.8 0-.077-.458-.2-.82-.2-1.18-.018-4.36.025-8.73-.04-13.1-.016-1.23.512-1.47 1.58-1.46 3.8.044 7.61.018 11.6.018.048-.725.11-1.31.11-1.9.013-3.15.024-6.3-.008-9.44-.01-.817.142-1.35 1.07-1.52 9.7-1.77 19.4-3.57 29.1-5.36l.41.202v18h2.19c6.08 0 12.1.026 18.2-.022 1.26-.01 1.75.308 1.73 1.67-.085 4.2-.03 8.39-.036 12.6 0 .426-.064.855-.113 1.48h-22zm-180-15c.584-.03 1.12-.078 1.66-.078 7.67-.005 15.4.045 23-.046 1.54-.017 2 .547 2.11 1.93.278 3.51.642 7.02 1.2 10.7 3.52-5.78 8.51-9.59 14.7-11.9 6.2-2.27 12.6-2.59 19.1-1.79v19.9c-2.21-.157-4.33-.356-6.45-.45-4.83-.217-9.6.185-14.2 1.9-6.72 2.52-9.64 6.83-9.66 14.2-.025 10.3-.005 20.5-.005 30.8v2.28h-32c0-23 1-46 0-68zm-14 67h-2.33c-9.06 0-18.1-.02-27.2.02-1.19.008-1.65-.294-1.64-1.57.032-21.5.026-43.1.014-64.6-.004-1.04.17-1.64 1.43-1.64 9.55.036 19.1.02 28.7.026.32.002.637.09 1.04.153v69zm-16-76c-4.22.15-8.25-.578-11.9-2.74-7.31-4.3-7.26-12.8.087-17 4.37-2.51 9.16-3.06 14.1-2.78 3.89.227 7.65 1.05 10.9 3.37 2.85 2.04 4.62 4.69 4.5 8.36-.096 2.86-1.49 5.05-3.63 6.77-3.3 2.67-7.24 3.64-11.4 3.98 0 1-1 1-2 1z"></path> </svg>