<svg xmlns="http://www.w3.org/2000/svg" viewBox="0 0 960 560"><title>Montefiore Health System</title> <path fill="#AB004F" d="M188.205 351.748c2.217.88 1.995 5.53-.44 6.416-9.507-.443-18.13-.67-26.97-.67-10.392 0-19.902.227-29.628.67-1.776-.887-2.657-5.09-.445-6.416l5.968-1.107c8.846-1.552 9.513-3.087 9.513-18.126v-90.438h-.446c-5.965 12.162-9.066 18.797-13.267 27.64l-19.01 38.917c-7.524 15.482-18.578 40.017-22.557 50.41-.888.883-4.198.883-5.75 0-3.76-11.943-13.27-33.604-18.35-44.664L47.14 271.925c-4.2-9.282-10.174-23.21-12.826-29.848h-.445c-.44 10.838-.88 28.082-1.33 37.37-.445 13.483-.882 33.167-.882 51.292 0 14.602.22 17.908 9.734 19.68l7.292 1.33c1.547 1.326 1.547 5.53-.22 6.416-8.183-.443-15.034-.672-23.216-.672-7.073 0-15.036.23-23.664.672C-.4 357.056-.4 352.852.93 351.75l3.755-.45c10.612-1.325 12.162-4.642 13.708-18.126 1.546-13.934 2.214-28.297 3.317-51.3.88-15.032 2.21-33.39 2.21-46.872 0-10.388-3.314-14.815-11.936-16.36l-7.516-1.326c-1.333-1.55-1.107-5.75.883-6.41 6.634.44 12.605.657 20.78.657 7.738 0 15.48 0 23.662-.658.88 13.265 6.415 24.763 12.16 36.702l24.318 51.077c1.768 3.75 7.52 14.818 10.393 19.894 3.54-6.402 6.414-12.604 11.497-22.992l20.78-42.45c7.077-14.597 14.154-27.638 17.915-42.234 5.966.44 13.27.658 18.13.658 9.29 0 17.023-.22 23.216-.658 2.43.88 2.873 5.08.668 6.41l-7.293 1.108c-9.734 1.545-11.945 5.085-11.945 16.798 0 32.72.445 65.456 1.995 98.17.662 14.82 3.09 16.15 10.17 17.247l6.41 1.113z"></path> <path fill="#003056" d="M242.892 351.748c15.26 0 19.676-18.133 19.676-35.154 0-18.574-6.414-40.467-22.775-40.467-11.27 0-20.12 11.496-20.12 36.04 0 20.122 7.297 39.58 23.22 39.58m45.768-38.917c0 31.397-22.105 47.76-48.42 47.76-25.432 0-46.66-16.14-46.66-45.115 0-29.62 22.55-48.197 48.422-48.197 24.988.002 46.66 16.812 46.66 45.552m43.462 18.356c0 16.365.882 19.017 8.406 20.128l3.316.438c1.544 1.537 1.317 5.527-.445 6.414-7.735-.45-15.26-.67-23.436-.67-7.072 0-14.593.22-23.877.67-1.77-.887-1.998-4.877-.442-6.414l4.87-.664c7.514-1.11 8.393-3.537 8.393-19.9v-32.512c0-9.942 0-12.598-5.523-15.916l-2.657-1.538c-.658-.892-.658-3.987.22-5.094 9.507-2.654 21.673-7.96 28.75-11.94 1.546 0 2.43.88 2.87 1.772-.44 4.2-.44 8.4-.44 10.17 0 1.546.66 1.99 1.988 2.21 10.398-5.745 16.58-11.057 30.29-11.057 17.912 0 26.313 12.39 26.313 29.632v34.27c0 16.368.876 19.018 8.405 19.9l5.078.665c1.552 1.54 1.33 5.53-.44 6.414-9.288-.45-16.802-.67-24.99-.67-7.29 0-14.812.22-22.55.67-1.765-.885-1.987-4.875-.44-6.414l3.317-.436c7.518-1.113 8.406-3.765 8.406-20.13v-30.506c0-11.28-4.423-20.127-17.692-20.127-6.86 0-12.38 3.542-14.59 6.856-2.88 3.982-3.1 5.967-3.1 14.15v29.626h.005v.003h-.005zm115.452-51.076c-3.983 0-4.2.445-4.2 7.513v34.064c0 13.92 1.99 26.3 16.147 26.3 4.423 0 7.063-1.546 10.612-3.98 1.984.222 3.312 1.99 2.866 4.423-4.424 6.19-14.594 12.158-28.074 12.158-21.014 0-24.772-12.158-24.772-27.64V288.07c0-7.742-.445-7.962-3.975-7.962h-7.734c-2.216-1.108-2.656-4.646-.664-5.972 7.52-2.876 12.596-5.748 17.463-9.287 4.2-3.092 9.067-7.74 12.158-13.703 1.99-1.334 5.09-.67 6.19 1.106v13.26c0 3.54 0 4.2 4.202 4.2h21.896c1.322.668 1.766 2.436 1.766 4.646-.224 2.65-1.102 4.643-2.88 5.75h-21.003.004zm78.155 16.144c6.41 0 9.29-.67 10.84-1.555 1.328-.882 2.207-2.646 2.207-4.644 0-7.957-5.08-14.377-14.598-14.377-14.81 0-21.664 14.376-21.664 19.02 0 .884.443 1.554 3.095 1.554h20.12zm-20.337 8.84c-4.2 0-4.646.22-4.646 2.873 0 19.9 13.716 35.816 33.387 35.816 8.854 0 16.146-2.86 21.23-11.05 2.215-.663 4.645 1.548 4.857 3.538-7.516 17.693-23.873 24.322-37.357 24.322-25.654 0-42.674-19.016-42.674-44.225 0-24.982 17.02-49.08 46.654-49.08 16.357 0 33.16 10.608 33.16 29.844 0 1.993-.22 3.314-1.104 5.09-1.327 1.99-6.415 2.872-15.257 2.872l-38.25.002zm420.115-8.84c6.41 0 9.282-.67 10.835-1.555 1.325-.882 2.216-2.646 2.216-4.644 0-7.957-5.093-14.377-14.603-14.377-14.806 0-21.666 14.376-21.666 19.02 0 .884.445 1.554 3.1 1.554h20.12zm-20.347 8.84c-4.212 0-4.638.22-4.638 2.873 0 19.9 13.7 35.816 33.382 35.816 8.846 0 16.142-2.86 21.23-11.05 2.215-.663 4.645 1.548 4.862 3.538-7.523 17.693-23.878 24.322-37.367 24.322-25.648 0-42.675-19.016-42.675-44.225 0-24.982 17.025-49.08 46.658-49.08 16.357 0 33.165 10.608 33.165 29.844 0 1.993-.22 3.314-1.108 5.09-1.318 1.99-6.413 2.872-15.254 2.872l-38.255.002zm-293.359-24.326c-4.647 0-4.647.453-4.647 6.86v43.558c0 16.357.877 18.79 8.63 19.668l8.618.89c1.547 1.543 1.328 5.524-.438 6.414-9.953-.44-18.578-.666-28.97-.666-7.3 0-14.81.225-23.878.666-1.772-.89-1.99-4.87-.45-6.414l4.87-.654c7.52-1.11 8.396-3.55 8.396-19.9v-43.784c0-5.973-.22-6.635-3.977-6.635h-7.967c-1.77-.88-2.21-3.752-.653-5.08l9.502-4.865c1.56-.882 3.094-2.204 3.094-4.863v-3.982c0-9.505.883-20.34 4.648-31.612 5.747-17.472 20.558-30.958 41.345-30.958 15.254 0 25.2 6.86 25.2 16.14 0 6.196-5.524 10.617-10.833 10.617-3.312 0-5.075-1.33-6.41-3.094-7.072-10.177-11.94-14.6-17.256-14.6-7.508 0-13.477 15.037-13.477 48.206v6.628c0 6.637.225 7.08 4.87 7.08h23.215c.875.657 1.323 1.988 1.323 3.536 0 3.76-1.322 5.746-3.09 6.85H611.8l.004-.006zm44.283-47.102c0-7.506 5.52-13.26 13.483-13.26 7.958 0 13.488 5.754 13.488 13.26 0 7.523-5.533 13.274-13.488 13.274-7.96 0-13.483-5.748-13.483-13.274m25.82 97.52c0 16.365.882 18.578 8.398 19.9l3.98.662c1.547 1.54 1.33 5.53-.443 6.416-8.178-.45-15.69-.67-23.874-.67-7.298 0-14.815.22-23.21.67-1.782-.887-1.995-4.877-.444-6.416l3.98-.662c7.514-1.328 8.396-3.537 8.396-19.9v-32.512c0-9.943 0-12.598-5.52-15.916l-2.663-1.54c-.658-.89-.658-3.985.226-5.093 11.497-3.314 22.554-8.185 28.744-11.938 1.327.227 2.43.66 3.092 1.77-.44 7.296-.664 17.91-.664 26.968v38.26zm69.545 20.562c15.264 0 19.682-18.133 19.682-35.154 0-18.574-6.4-40.467-22.77-40.467-11.277 0-20.122 11.496-20.122 36.04 0 20.122 7.296 39.58 23.21 39.58m45.777-38.917c0 31.397-22.113 47.76-48.422 47.76-25.426 0-46.66-16.14-46.66-45.115 0-29.62 22.558-48.197 48.427-48.197 24.983.002 46.654 16.812 46.654 45.552m20.252-14.152c0-9.947 0-12.602-5.535-15.918l-2.65-1.54c-.656-.89-.656-3.987.217-5.09 9.51-3.095 21.23-7.963 27.868-11.94 1.322 0 2.647.663 3.093 1.993-.224 4.198-.444 7.955-.444 9.945 0 1.55.883 2.653 2.21 2.653 6.858-4.862 14.148-11.496 21.672-11.496 7.732 0 12.16 5.086 12.16 10.838 0 8.62-6.413 12.82-12.385 12.82-2.212 0-4.2-.66-5.968-1.772-5.536-3.75-9.29-4.202-10.61-4.202-5.09 0-6.413 5.09-6.413 15.924v30.29c0 16.36.876 18.796 8.614 19.673l8.622.887c1.554 1.545 1.332 5.524-.433 6.414-13.272-.44-20.79-.664-28.972-.664-7.292 0-14.595.225-23 .664-1.768-.89-1.985-4.87-.44-6.414l3.977-.652c7.522-1.334 8.412-3.547 8.412-19.906v-32.508h.003v.002z"></path> </svg>