<svg xmlns="http://www.w3.org/2000/svg" viewBox="0 0 960 560"><title>Visa Card Member Benefits</title> <path fill="#fff" d="M364.7 130.8L239.3 430h-81.8L95.8 191.2c-3.7-14.7-7-20.1-18.4-26.3-18.6-10.1-49.3-19.6-76.3-25.5l1.8-8.7h131.7c16.8 0 31.9 11.2 35.7 30.5l32.6 173.1 80.6-203.6 81.2.1zm320.6 201.5c.3-79-109.2-83.3-108.4-118.6.2-10.7 10.5-22.1 32.8-25.1 11.1-1.4 41.7-2.6 76.3 13.4l13.6-63.4c-18.6-6.8-42.6-13.3-72.4-13.3-76.5 0-130.3 40.7-130.8 98.9-.5 43.1 38.4 67.1 67.8 81.4 30.1 14.7 40.3 24.1 40.1 37.2-.2 20.1-24.1 28.9-46.3 29.3-38.9.6-61.5-10.5-79.5-18.9l-14 65.6c18.1 8.3 51.5 15.5 86.1 15.9 81.3 0 134.5-40.2 134.7-102.4m202 97.7h71.6l-62.5-299.2h-66.1c-14.9 0-27.4 8.6-32.9 21.9L681.3 430h81.2l16.1-44.7H878l9.3 44.7zM801 324l40.7-112.3L865.1 324H801zM475.3 130.8l-64 299.2h-77.4l64-299.2h77.4z"></path> </svg>